<svg xmlns="http://www.w3.org/2000/svg" x="0" y="0" viewBox="0 0 64 64" width="64" height="64"><g class="nc-icon-wrapper" fill="#1b32b3"><g class="nc-icon-wrapper" fill="#1b32b3"><path data-color="color-2" fill="none" stroke="#1b32b3" stroke-width="2" stroke-linecap="round" stroke-linejoin="round" stroke-miterlimit="10" d="M36 16h12c4.4 0 8 3.6 8 8v6"></path><path data-color="color-2" fill="none" stroke="#1b32b3" stroke-width="2" stroke-linecap="round" stroke-linejoin="round" stroke-miterlimit="10" d="M28 48H16c-4.4 0-8-3.6-8-8v-6"></path><path data-color="color-2" fill="none" stroke="#1b32b3" stroke-width="2" stroke-linecap="round" stroke-linejoin="round" stroke-miterlimit="10" d="M44 8l-8 8 8 8"></path><path data-color="color-2" fill="none" stroke="#1b32b3" stroke-width="2" stroke-linecap="round" stroke-linejoin="round" stroke-miterlimit="10" d="M20 40l8 8-8 8"></path><g><path data-color="color-2" fill="none" stroke="#1b32b3" stroke-width="2" stroke-linecap="round" stroke-linejoin="round" stroke-miterlimit="10" d="M43.7 61.5h-4v-9h4"></path><path data-color="color-2" fill="none" stroke="#1b32b3" stroke-width="2" stroke-linecap="round" stroke-linejoin="round" stroke-miterlimit="10" d="M57.7 61.5h4v-9h-4"></path><path fill="none" stroke="#1b32b3" stroke-width="2" stroke-linecap="round" stroke-linejoin="round" stroke-miterlimit="10" d="M43.7 39.5h14v22h-14z"></path><path fill="none" stroke="#1b32b3" stroke-width="2" stroke-linecap="round" stroke-linejoin="round" stroke-miterlimit="10" d="M47.7 43.5h1"></path><path fill="none" stroke="#1b32b3" stroke-width="2" stroke-linecap="round" stroke-linejoin="round" stroke-miterlimit="10" d="M52.7 43.5h1"></path><path fill="none" stroke="#1b32b3" stroke-width="2" stroke-linecap="round" stroke-linejoin="round" stroke-miterlimit="10" d="M47.7 47.5h1"></path><path fill="none" stroke="#1b32b3" stroke-width="2" stroke-linecap="round" stroke-linejoin="round" stroke-miterlimit="10" d="M52.7 47.5h1"></path><path fill="none" stroke="#1b32b3" stroke-width="2" stroke-linecap="round" stroke-linejoin="round" stroke-miterlimit="10" d="M47.7 51.5h1"></path><path fill="none" stroke="#1b32b3" stroke-width="2" stroke-linecap="round" stroke-linejoin="round" stroke-miterlimit="10" d="M52.7 51.5h1"></path><path fill="none" stroke="#1b32b3" stroke-width="2" stroke-linecap="round" stroke-linejoin="round" stroke-miterlimit="10" d="M47.7 55.5h1"></path><path fill="none" stroke="#1b32b3" stroke-width="2" stroke-linecap="round" stroke-linejoin="round" stroke-miterlimit="10" d="M52.7 55.5h1"></path><path fill="none" stroke="#1b32b3" stroke-width="2" stroke-linecap="round" stroke-linejoin="round" stroke-miterlimit="10" d="M50.7 61.5v-2"></path></g><path fill="#1b32b3" d="M13.4 25.8C6.4 25.8.8 20.1.8 13.2S6.4.6 13.4.6 26 6.2 26 13.2s-5.6 12.6-12.6 12.6zm0-23.5C7.3 2.3 2.5 7.1 2.5 13.2s4.8 10.9 10.9 10.9 10.9-4.9 10.9-10.9S19.4 2.3 13.4 2.3z"></path><path data-color="color-2" fill="#0b154c" d="M13.3 13.2l3.2 1.9v-3.7m3.1 5.4V9.5l-1.6 1v5.3m-4.7-2.6l3.2-1.8-3.2-1.8m-6.2 0l1.6 1v-2l-1.6 1zM13.5 6l-3.2 1.8v3.5l1.6 1V8.8l1.6-.9 4.5 2.6 1.6-1L13.5 6zm-1.6 8.1v-1.8l-1.6-1v3.8l1.6-1zM7.1 9.6v7.2l1.6-1v-5.3l-1.6-.9zM18 15.8v2l1.6-1-1.6-1zm-4.6 4.8l3.1-1.8V17l-3.1-1.9-1.5-1-1.6 1 3.2 1.8 1.4.9-1.5.8-4.7-2.8-1.6 1"></path></g></g></svg>