<svg xmlns="http://www.w3.org/2000/svg" x="0" y="0" viewBox="0 0 64 64" width="64" height="64"><g class="nc-icon-wrapper" fill="#1b32b3"><g class="nc-icon-wrapper" fill="#1b32b3"><path fill="#1b32b3" d="M11 31h1c4.7 0 9.9 2.5 12.5 6H32c4.5 0 9 4.5 9 9 0 .6-.4 1-1 1H22c-.6 0-1-.4-1-1s.4-1 1-1h16.9c-.6-3.1-3.8-6-6.9-6h-8c-.3 0-.6-.2-.8-.4C21 35.4 16.2 33 12 33h-1m29.4 10H52c4.4 0 6.1 1.5 6.7 2.5L31 56.7c-2 .8-4.3.7-6.2-.3l-14.3-7.3c-.5-.2-1.1-.1-1.3.4s-.1 1.1.4 1.3l14.3 7.3c1.3.7 2.8 1 4.3 1 1.2 0 2.4-.2 3.6-.7l28.6-11.6c.4-.2.7-.6.6-1.1 0-.2-1-4.8-9-4.8H39.2C40 42 40.4 43 40.4 43zM11 54V28c0-.6-.4-1-1-1H2c-.6 0-1 .4-1 1v26c0 .6.4 1 1 1h8c.6 0 1-.4 1-1zM3 29h6v24H3V29z"></path><path fill="#1b32b3" d="M37 34.6c-8.1 0-14.6-6.6-14.6-14.6S28.9 5.4 37 5.4 51.6 11.9 51.6 20 45.1 34.6 37 34.6zm0-27.2C30 7.4 24.4 13 24.4 20S30 32.6 37 32.6 49.6 26.9 49.6 20 44 7.4 37 7.4z"></path><path data-color="color-2" fill="#0b154c" d="M36.9 20l3.7 2.2v-4.3m3.6-2.1l-1.9 1.1V23l1.9 1.1v-8.3zM36.9 20l3.7-2.1-3.7-2.1m-7.1 0l1.9 1.1v-2.2l-1.9 1.1zm7.3-4.1l-3.7 2.1v4.1l1.9 1.1v-4.1l1.8-1 5.2 3 1.9-1.1-7.1-4.1zM35.3 21v-2l-1.9-1.1v4.2l1.9-1.1zm-5.5-5.2v8.3l1.9-1.1v-6.1l-1.9-1.1zM42.3 23v2.3l1.9-1.2-1.9-1.1zm-7-2l-1.9 1.1 3.7 2.1 1.6 1-1.7.9-5.3-3.1-1.9 1.1v.1l7.2 4.2 3.6-2.1v-2.1L37 22l-1.7-1z"></path></g></g></svg>