<svg xmlns="http://www.w3.org/2000/svg" xmlns:xlink="http://www.w3.org/1999/xlink" x="0px" y="0px" width="24" height="24" viewBox="0 0 24 24"><g class="nc-icon-wrapper" fill="#ffffff"><path fill="#ffffff" d="M24 12c0 6.627-5.373 12-12 12S0 18.627 0 12 5.373 0 12 0s12 5.373 12 12zm-9.35 2.741c.37-1.009 1.72-4.846 1.938-5.852.245-1.138-.268-1.25-1.437-.868-1.168.382-4.165 1.493-4.669 1.672-.504.179-2.96 1.004-3.469 1.25-1.04.558-.534 1.409.629 1.85 3.474 1.668 2.487.819 4.038 3.904.32.789 1.072 2.131 1.793 1.116.379-.577.887-2.278 1.177-3.072z" class="nc-icon-wrapper"></path></g></svg>