<?xml version="1.0" encoding="utf-8"?>
<!-- Generator: Adobe Illustrator 21.0.0, SVG Export Plug-In . SVG Version: 6.00 Build 0)  -->
<svg version="1.1" id="Layer_1" xmlns="http://www.w3.org/2000/svg" xmlns:xlink="http://www.w3.org/1999/xlink" x="0px" y="0px"
	 viewBox="0 0 464.1 536" style="enable-background:new 0 0 464.1 536;" xml:space="preserve">
<style type="text/css">
	.st0{fill:#2C49C4;}
	.st1{fill:#1A31AF;}
	.st2{fill:#003399;}
</style>
<path class="st0" d="M230.2,131.1v135.4l0.1,3l119.5-69.2L233,132.5L230.2,131.1z M0,134l62.1,35.3V98.7L0,134z M232.7,0L232.7,0
	L114.3,67.7v132.6l62,35.3V103l56.4-31.1L402,169.3l62.1-35.3L232.7,0z"/>
<path class="st1" d="M230.3,269.5l2.4,1.3l117.1,67.7v-2.8V200.3l0,0L230.3,269.5z M464.1,134L464.1,134L402,169.3v197.4l62.1,35.3
	l0,0V134z M176.3,300.4v-64.8l-62-35.3v135.4L176.3,300.4z M0,134v268l62.1-35.3l0,0V169.3L0,134z"/>
<path class="st2" d="M402,366.7v70.6l62.1-35.3L402,366.7z M176.3,300.4l-62,35.3l0,0l118.4,67.7l52.2,31l-52.2,29.7l0,0L62.1,366.7
	L0,402l0,0l232.7,134l0,0l117.1-67.7v-69.1l-117.1-67.7L176.3,300.4z"/>
</svg>
