<svg version="1.1" xmlns="http://www.w3.org/2000/svg" xmlns:xlink="http://www.w3.org/1999/xlink" x="0px" y="0px" viewBox="0 0 48 48" xml:space="preserve" width="48" height="48"><g class="nc-icon-wrapper" fill="#8c97d2"><path fill-rule="evenodd" clip-rule="evenodd" fill="none" stroke="#8c97d2" stroke-width="2" stroke-linecap="round" stroke-miterlimit="10" d=" M40.79,36.684L29,33v-3.876c0-0.574,0.217-1.14,0.643-1.526c1.878-1.706,3.296-4.127,3.951-6.624c1.13-0.104,2.083-0.968,2.246-2.14 l0.275-1.981c0.189-1.361-0.757-2.616-2.114-2.815v-3.196c0-3.006-2.442-5.455-5.455-5.455l-1.412-2.824 c-0.223-0.447-0.791-0.675-1.261-0.507L19.14,4.46C16.313,5.47,14,8.752,14,11.754v2.284c-1.357,0.199-2.302,1.454-2.114,2.815 l0.275,1.981c0.163,1.173,1.116,2.036,2.246,2.14c0.654,2.498,2.073,4.918,3.951,6.624C18.783,27.985,19,28.55,19,29.124V33 L7.21,36.684C4.706,37.467,3,39.787,3,42.411V46h42v-3.589C45,39.787,43.295,37.467,40.79,36.684z" transform="translate(0, 0)" stroke-linejoin="round"></path></g></svg>