<svg version="1.1" xmlns="http://www.w3.org/2000/svg" xmlns:xlink="http://www.w3.org/1999/xlink" x="0px" y="0px" viewBox="0 0 64 64" xml:space="preserve" width="64" height="64"><g class="nc-icon-wrapper" fill="#1b32b3"><path fill="#1b32b3" d="M32,1C20.694,1,9,9.639,9,24.095C9,39.24,30.383,60.797,31.293,61.707C31.48,61.895,31.735,62,32,62 s0.52-0.105,0.707-0.293C33.617,60.797,55,39.24,55,24.095C55,9.639,43.306,1,32,1z M32,32c-4.418,0-8-3.582-8-8s3.582-8,8-8 s8,3.582,8,8S36.418,32,32,32z"></path></g></svg>