<svg version="1.1" xmlns="http://www.w3.org/2000/svg" xmlns:xlink="http://www.w3.org/1999/xlink" x="0px" y="0px" viewBox="0 0 48 48" xml:space="preserve" width="48" height="48"><g class="nc-icon-wrapper" fill="#1b32b3"><path fill="#1b32b3" d="M24,1C11.317,1,1,11.318,1,24s10.317,23,23,23s23-10.318,23-23S36.683,1,24,1z M28.561,20.339v2.746h-8.687 c-0.057,0.75-0.039,1.375,0,2.311h7.407v2.62h-7.099c0.775,3.561,2.977,5.342,6.609,5.342c1.731,0,3.504-0.354,5.319-1.062v3.476 c-1.586,0.697-3.431,1.044-5.537,1.044c-2.917,0-5.286-0.753-7.107-2.26c-1.822-1.507-3.012-3.686-3.568-6.54H13v-2.62h2.607 c-0.057-0.764-0.075-1.28,0-2.311H13v-2.746l2.862,0.04c0.46-2.865,1.616-5.113,3.467-6.746c1.852-1.632,4.242-2.448,7.172-2.448 c2.42,0,4.587,0.502,6.499,1.507l-1.525,3.202c-1.864-0.867-3.522-1.301-4.974-1.301c-1.707,0-3.102,0.479-4.185,1.438 c-1.084,0.959-1.807,2.409-2.17,4.349L28.561,20.339z"></path></g></svg>