<svg version="1.1" xmlns="http://www.w3.org/2000/svg" xmlns:xlink="http://www.w3.org/1999/xlink" x="0px" y="0px" viewBox="0 0 48 48" xml:space="preserve" width="48" height="48"><g class="nc-icon-wrapper" fill="#1b32b3"><path fill="#1b32b3" d="M19.822,17.983c0,1.884,1.389,2.273,3.178,3.017v-5.545C21.339,15.705,19.822,16.3,19.822,17.983z"></path> <path fill="#1b32b3" d="M25,26v5.72c2.104-0.323,3.304-1.225,3.304-2.708C28.304,27.242,26.778,26.655,25,26z"></path> <path fill="#1b32b3" d="M24,1C11.317,1,1,11.318,1,24s10.317,23,23,23s23-10.318,23-23S36.683,1,24,1z M30.635,33.029 C29.367,34.153,27.391,34.737,25,35v4h-2v-3.784c-2.965-0.048-5.635-0.502-7.536-1.363V30.07c2.115,1.033,5.103,1.767,7.536,1.793 v-6.706L21.256,24.6c-1.961-0.753-3.393-1.652-4.295-2.699c-0.903-1.046-1.354-2.34-1.354-3.882c0-1.65,0.643-3.006,1.928-4.071 C18.82,12.885,20.801,12.228,23,12V9h2v3c2.427,0.083,4.875,0.532,7.051,1.429l-1.309,3.281c-1.877-0.741-3.889-1.183-5.742-1.327 v6.527l1.51,0.52c2.271,0.873,3.843,1.793,4.716,2.761c0.872,0.968,1.309,2.152,1.309,3.55 C32.536,30.476,31.902,31.905,30.635,33.029z"></path></g></svg>