<svg xmlns="http://www.w3.org/2000/svg" x="0" y="0" viewBox="0 0 64 64" width="64" height="64"><g class="nc-icon-wrapper" fill="#1b32b3"><g class="nc-icon-wrapper" fill="#1b32b3"><path fill="none" stroke="#1b32b3" stroke-width="2" stroke-linecap="round" stroke-miterlimit="10" stroke-linejoin="round" d="M25 37h14v24H25z"></path><path fill="none" stroke="#1b32b3" stroke-width="2" stroke-linecap="round" stroke-miterlimit="10" stroke-linejoin="round" d="M2 49h14v12H2z"></path><path fill="none" stroke="#1b32b3" stroke-width="2" stroke-linecap="round" stroke-miterlimit="10" stroke-linejoin="round" d="M48 25h14v36H48z"></path><path data-color="color-2" fill="#0b154c" d="M27 8c0-2.757 2.243-5 5-5s5 2.243 5 5v5h2V8c0-3.86-3.14-7-7-7s-7 3.14-7 7v5h2V8z"></path><path data-color="color-2" fill="#0b154c" d="M22 29h20a1 1 0 0 0 1-1V16a1 1 0 0 0-1-1H22a1 1 0 0 0-1 1v12a1 1 0 0 0 1 1zm10-9a2 2 0 1 1 .001 3.999A2 2 0 0 1 32 20z"></path></g></g></svg>