<svg version="1.1" xmlns="http://www.w3.org/2000/svg" xmlns:xlink="http://www.w3.org/1999/xlink" x="0px" y="0px" viewBox="0 0 48 48" xml:space="preserve" width="48" height="48">
<g>
	<path fill="#1b32b3" d="M20.7 24.1l10.6 6.2V17.9M41.6 12L36 15.2v17.7l5.6 3.2V12zm-10.3 5.9l-10.5-6.1-.3-.1.1 12.4M0 12l5.6 3.2V8.8L0 12zM20.8 0L10.2 6.1V18l5.6 3.2v-12l5.1-2.8L36 15.2l5.6-3.2L20.8 0zm-5 26.9v-5.8l-5.6-3.2V30l5.6-3.1zM0 12v24l5.6-3.2V15.2L0 12zm36 20.8v6.3l5.6-3.2-5.6-3.1zm-20.2-5.9l-5.6 3.2 10.6 6.1 4.7 2.8-4.7 2.7-15.2-8.9L0 36l20.8 12 10.5-6.1v-6.2l-10.5-6.1-5-2.7z" class="nc-icon-wrapper"></path>

	<path fill="#1A31B0" d="M20.7 24.1l10.6 6.2V17.9M41.6 12L36 15.2v17.7l5.6 3.2V12zm-10.3 5.9l-10.5-6.1-.3-.1.1 12.4M0 12l5.6 3.2V8.8L0 12zM20.8 0L10.2 6.1V18l5.6 3.2v-12l5.1-2.8L36 15.2l5.6-3.2L20.8 0zm-5 26.9v-5.8l-5.6-3.2V30l5.6-3.1zM0 12v24l5.6-3.2V15.2L0 12zm36 20.8v6.3l5.6-3.2-5.6-3.1zm-20.2-5.9l-5.6 3.2 10.6 6.1 4.7 2.8-4.7 2.7-15.2-8.9L0 36l20.8 12 10.5-6.1v-6.2l-10.5-6.1-5-2.7z"></path>


	</g></svg>