<svg xmlns="http://www.w3.org/2000/svg" x="0" y="0" viewBox="0 0 48 48" width="48" height="48"><g class="nc-icon-wrapper"><g class="nc-icon-wrapper"><path fill="#002781" d="M46 6H2a2 2 0 0 0-2 2v32a2 2 0 0 0 2 2h44a2 2 0 0 0 2-2V8a2 2 0 0 0-2-2z"></path><path fill="#fff" d="M48 8a2 2 0 0 0-2-2h-5.161L28 15.876V6h-8v9.876L7.161 6H2a2 2 0 0 0-2 2v2.586L12.239 20H0v8h12.239L0 37.415V40a2 2 0 0 0 2 2h5.161L20 32.124V42h8v-9.876L40.839 42H46a2 2 0 0 0 2-2v-2.585L35.761 28H48v-8H35.761L48 10.586V8z"></path><path fill="#D10D24" d="M48 22H26V6h-4v16H0v4h22v16h4V26h22z"></path><path fill="#D10D24" d="M47.001 6.307L29.2 20h3.28L48 8.062V8c0-.732-.413-1.344-.999-1.693z"></path><path fill="#D10D24" d="M32.48 28H29.2l17.801 13.693c.586-.349.999-.961.999-1.693v-.062L32.48 28z"></path><path fill="#D10D24" d="M15.52 28L0 39.938V40c0 .732.413 1.344.999 1.693L18.8 28h-3.28z"></path><path fill="#D10D24" d="M15.52 20h3.28L.999 6.307C.413 6.656 0 7.268 0 8v.062L15.52 20z"></path></g></g></svg>