<?xml version="1.0" standalone="no"?>
<!DOCTYPE svg PUBLIC "-//W3C//DTD SVG 1.1//EN" "http://www.w3.org/Graphics/SVG/1.1/DTD/svg11.dtd" >
<svg xmlns="http://www.w3.org/2000/svg">
<defs>
  <font id="Leaseum" horiz-adv-x="256">
    <font-face font-family="Leaseum"
      units-per-em="256" ascent="256"
      descent="0" />
    <missing-glyph horiz-adv-x="0" />
    <glyph glyph-name="logo-facebook"
      unicode="&#xEA02;"
      horiz-adv-x="256" d="M245.3333333333333 256H10.6666666666667C4.7756266666667 256 0 251.2243733333334 0 245.3333333333334V10.6666666666667C0 4.7756266666667 4.7756266666667 0 10.6666666666667 0H136.7375466666667V99.1365333333334H103.376V137.7721066666667H136.7375466666667V166.26464C136.7375466666667 199.33008 156.9328 217.3348266666667 186.42944 217.3348266666667C200.5586133333334 217.3348266666667 212.70192 216.28288 216.2408 215.8126933333333V181.2573866666667L195.78336 181.2481066666667C179.74144 181.2481066666667 176.6353066666667 173.6252266666667 176.6353066666667 162.4391466666667V137.7721066666667H214.8938133333334L209.9124266666667 99.1365333333333H176.6353066666667V0H245.3333333333333C251.2243733333333 0 256 4.7756266666667 256 10.6666666666667V245.3333333333334C256 251.2243733333334 251.2243733333334 256 245.3333333333333 256z" />
    <glyph glyph-name="logo-twitter"
      unicode="&#xEA03;"
      horiz-adv-x="256" d="M256 207.4666666666667C246.4 203.2 236.2666666666667 200.5333333333333 225.6 198.9333333333333C236.2666666666667 205.3333333333334 244.8 215.4666666666667 248.5333333333334 227.7333333333334C238.4 221.8666666666667 227.2 217.6 214.9333333333333 214.9333333333333C205.3333333333334 225.0666666666667 191.4666666666667 231.4666666666667 176.5333333333333 231.4666666666667C147.7333333333333 231.4666666666667 124.2666666666667 208 124.2666666666667 179.2C124.2666666666667 174.9333333333333 124.8 171.2 125.8666666666667 167.4666666666667C82.6666666666667 169.6 43.7333333333333 190.4 17.6 222.4C13.3333333333333 214.4 10.6666666666667 205.8666666666667 10.6666666666667 196.2666666666667C10.6666666666667 178.1333333333333 19.7333333333333 162.1333333333333 34.1333333333333 152.5333333333334C25.6 153.0666666666667 17.6 155.2 10.1333333333333 158.9333333333333C10.1333333333333 158.9333333333333 10.1333333333333 158.4 10.1333333333333 158.4C10.1333333333333 132.8 28.2666666666667 111.4666666666667 52.2666666666667 106.6666666666667C48 105.6 43.2 105.0666666666667 38.4 105.0666666666667C35.2 105.0666666666667 31.4666666666667 105.6 28.2666666666667 106.1333333333334C35.2 85.3333333333334 54.4 69.8666666666667 77.3333333333333 69.8666666666667C59.2 56 36.8 47.4666666666667 12.2666666666667 47.4666666666667C8 47.4666666666667 3.7333333333333 47.4666666666667 0 48C23.4666666666667 33.0666666666667 50.6666666666667 24.5333333333333 80.5333333333333 24.5333333333333C177.0666666666667 24.5333333333333 229.8666666666667 104.5333333333333 229.8666666666667 173.8666666666667C229.8666666666667 176 229.8666666666667 178.6666666666666 229.8666666666667 180.8C240 187.7333333333334 249.0666666666667 196.8 256 207.4666666666667z" />
    <glyph glyph-name="logo-linkedin"
      unicode="&#xEA04;"
      horiz-adv-x="256" d="M245.3333333333333 256H10.6666666666667C4.8 256 0 251.2 0 245.3333333333334V10.6666666666667C0 4.8 4.8 0 10.6666666666667 0H245.3333333333333C251.2 0 256 4.8 256 10.6666666666667V245.3333333333334C256 251.2 251.2 256 245.3333333333333 256zM75.7333333333333 37.8666666666667H37.8666666666667V160H75.7333333333333V37.8666666666667zM57.0666666666667 176.5333333333333C44.8 176.5333333333333 35.2 186.1333333333333 35.2 198.4C35.2 210.6666666666667 44.8 220.2666666666667 57.0666666666667 220.2666666666667C69.3333333333333 220.2666666666667 78.9333333333333 210.6666666666667 78.9333333333333 198.4C78.9333333333333 186.6666666666667 69.3333333333333 176.5333333333333 57.0666666666667 176.5333333333333zM218.1333333333333 37.8666666666667H180.2666666666667V97.0666666666667C180.2666666666667 111.4666666666667 180.2666666666667 129.6 160.5333333333333 129.6C140.8 129.6 137.6 114.1333333333333 137.6 98.1333333333333V37.8666666666667H99.7333333333333V160H136V143.4666666666667H136.5333333333333C141.3333333333333 153.0666666666667 154.1333333333333 163.2 172.2666666666667 163.2C210.6666666666667 163.2 217.6 138.1333333333333 217.6 105.0666666666667V37.8666666666667z" />
    <glyph glyph-name="pin-3"
      unicode="&#xEA05;"
      horiz-adv-x="256" d="M128 252C82.776 252 36 217.444 36 159.62C36 99.04 121.532 12.812 125.172 9.172C125.92 8.42 126.94 8 128 8S130.08 8.42 130.828 9.172C134.468 12.812 220 99.04 220 159.62C220 217.444 173.224 252 128 252zM128 128C110.328 128 96 142.328 96 160S110.328 192 128 192S160 177.672 160 160S145.672 128 128 128z" />
    <glyph glyph-name="square-pin"
      unicode="&#xEA06;"
      horiz-adv-x="256" d="M115 249.053C97.405 245.314 83.546 237.748 71 225.033C61.287 215.188 56.01 206.844 52.502 195.786C44.855 171.677 47.109 152.261 60.608 125.952C71.956 103.835 97.649 69.41 119.721 46.75C126.388 39.905 127.691 39 130.885 39C134.098 38.999 135.314 39.861 141.82 46.75C170.725 77.356 196.849 114.469 206.542 138.696C211.771 151.768 213.31 160.317 212.71 172.975C211.748 193.279 205.413 209.001 192.713 222.601C178.974 237.312 163.556 245.832 144.14 249.445C133.49 251.426 125.671 251.321 115 249.053M149.506 231.929C173.459 224.543 190.384 206.642 195.606 183.17C197.966 172.559 197.123 158.916 193.493 149C185.879 128.201 168.879 102.412 142.151 71.117C136.459 64.453 131.449 59 131.016 59C128.676 59 104.072 88.501 91.401 106.5C77.847 125.752 69.307 142.307 65.869 155.992C63.181 166.692 63.694 177.839 67.417 189.578C70.542 199.433 75.707 207.503 84.13 215.693C94.187 225.471 105.909 231.505 119.757 234.034C127.122 235.378 141.654 234.35 149.506 231.929M120.885 195.68C100.952 188.226 95.103 162.894 109.799 147.665C115.366 141.897 120.3 139.74 129.143 139.212C135.756 138.817 137.52 139.091 142.232 141.249C156.649 147.849 163.429 163.761 158.003 178.262C155.738 184.317 149.546 191.15 143.5 194.268C138.453 196.871 126.128 197.641 120.885 195.68M138.102 178.717C140.287 177.25 142.025 174.929 142.969 172.217C144.261 168.508 144.261 167.492 142.969 163.783C138.159 149.975 117.667 153.391 117.667 168C117.667 178.555 129.278 184.645 138.102 178.717M52.173 78.745C50.477 77.929 45.258 68.452 32.923 43.788C23.615 25.178 16 8.898 16 7.612C16 6.325 17.186 4.086 18.636 2.636L21.273 0L130.682 0L240.091 0L242.545 2.455C244.025 3.934 244.98 6.02 244.95 7.705C244.922 9.26 237.271 25.58 227.7 44.5C212.729 74.093 210.135 78.625 207.682 79.467C204.099 80.696 200.072 78.618 198.104 74.523C196.751 71.707 197.127 70.779 210.354 44.304C217.859 29.282 224 16.768 224 16.495C224 16.223 181.923 16 130.496 16L36.993 16L50.496 42.993C57.923 57.839 64 71.048 64 72.347C64 75.474 59.686 80.017 56.798 79.932C55.534 79.895 53.453 79.361 52.173 78.745" />
    <glyph glyph-name="at-sign"
      unicode="&#xEA07;"
      horiz-adv-x="256" d="M125 249.986C100.815 247.642 76.767 239.368 60.031 227.633C19.219 199.015 -3.874 133.836 8.985 83.557C20.122 40.015 52.228 10.814 98.364 2.268C110.773 -0.031 141.286 0.005 156.5 2.335C176.723 5.433 194.821 10.669 197.829 14.294C200.029 16.945 198.882 23.017 195.739 25.354C193.26 27.198 192.545 27.285 188.739 26.205C161.786 18.564 149.259 16.645 126 16.591C102.246 16.537 88.701 19.279 71.782 27.569C36.894 44.662 17.369 82.871 21.993 125C24.136 144.529 28.514 159.238 37.304 176.443C55.425 211.912 84.339 230.21 128.375 234.076C147.37 235.744 165.497 232.894 185.636 225.073C210.045 215.595 228.292 195.395 235.836 169.5C243.802 142.154 239.245 104.387 226.234 89.915C220.653 83.708 215.371 80.935 207.829 80.251C189.548 78.593 179.879 94.709 181.286 124.49C181.601 131.149 182.866 145.807 184.097 157.063C185.328 168.318 186.028 178.751 185.653 180.246C185.272 181.764 183.763 183.581 182.236 184.361C171.33 189.934 141.16 192.794 126.853 189.611C102.432 184.178 85.51 167.314 77.367 140.297C75.103 132.785 74.7 129.528 74.608 118C74.489 103.18 75.427 98.307 80.274 88.551C85.816 77.397 98.543 67.94 111.799 65.125C129.626 61.34 148.947 67.306 163.435 81.068L170.643 87.915L172.703 83.707C175.726 77.531 182.089 70.809 187.443 68.136C194.424 64.649 204.577 63.349 213.233 64.833C236.305 68.79 250.648 89.457 254.969 124.974C259.248 160.147 248.914 193.805 227 216.066C217.207 226.014 209.482 231.48 196.623 237.562C175.734 247.441 148.133 252.229 125 249.986M162.395 173.505C166.187 172.701 169.376 171.922 169.482 171.772C169.588 171.622 168.865 164.525 167.876 156C166.887 147.475 165.772 133.525 165.398 125C164.797 111.301 164.43 108.925 162.243 104.554C158.489 97.053 149.806 88.995 140.552 84.425C132.899 80.646 132.23 80.5 122.552 80.5C113.987 80.5 111.865 80.839 108.205 82.793C101.345 86.456 96.5 91.508 93.392 98.238C90.673 104.126 90.504 105.246 90.573 117C90.636 127.702 91.026 130.651 93.288 137.5C96.089 145.983 101.378 155.631 105.817 160.355C111.743 166.661 121.854 172.159 131.5 174.32C136.229 175.379 156.009 174.858 162.395 173.505" />
    <glyph glyph-name="send"
      unicode="&#xEA08;"
      horiz-adv-x="256" d="M128 196.983C69.425 173.425 20.697 153.652 19.715 153.044C17.166 151.466 15.639 147.574 16.392 144.574C16.867 142.684 23.93 136.824 43.019 122.486L69 102.971L69 66.05C69 44.962 69.41 28.051 69.957 26.613C70.483 25.229 72.293 23.383 73.978 22.511C76.778 21.063 77.322 21.065 80.271 22.528C82.182 23.476 90.585 32.496 100.86 44.63C111.508 57.204 118.729 64.934 119.538 64.624C120.263 64.346 136.789 52.166 156.263 37.559C185.185 15.864 192.249 11 194.835 11C198.347 11 201.644 13.679 202.496 17.225C205.176 28.383 245 230.235 245 232.664C245 236.478 241.113 240.048 237.115 239.908C235.677 239.858 186.575 220.542 128 196.983M224.625 209.25C224.344 208.288 216.372 168.575 206.909 121C197.446 73.425 189.433 34.188 189.102 33.807C188.484 33.096 93.502 103.852 93.118 105.309C92.896 106.153 222.886 210.797 224.317 210.926C224.767 210.967 224.905 210.212 224.625 209.25M188.45 203.138C185.852 200.78 81.941 117.98 80.273 116.938C78.559 115.868 76.192 117.328 59.712 129.615C49.468 137.252 41.067 143.792 41.043 144.149C41.009 144.661 187.206 203.774 188.95 203.954C189.197 203.979 188.972 203.612 188.45 203.138M95.662 82.981C100.798 79.121 105 75.582 105 75.117C105 74.19 86.266 52 85.483 52C85.217 52 85 60.55 85 71C85 81.45 85.298 90 85.662 90C86.026 90 90.526 86.842 95.662 82.981" />
    <glyph glyph-name="stre-right"
      unicode="&#xEA09;"
      horiz-adv-x="256" d="M93.9626666666667 4.3893333333334L76.7093333333333 16.944L157.4773333333333 128L76.704 239.056L93.9573333333333 251.6106666666667L179.2906666666667 134.2773333333333C182.0106666666667 130.5333333333333 182.0106666666667 125.472 179.2906666666667 121.7226666666667L93.9626666666667 4.3893333333334z" />
    <glyph glyph-name="stre-right-2"
      unicode="&#xEA0A;"
      horiz-adv-x="256" d="M79.826 254.288C78.355 253.375 76.668 251.566 76.076 250.267C73.141 243.826 72.7 244.548 116 185C138.55 153.989 157 128.339 157 128C157 127.661 138.55 102.011 116 71C72.681 11.426 73.14 12.177 76.085 5.712C77.356 2.922 81.894 0 84.954 0C90.428 0 93.133 3.307 136.958 63.578C176.91 118.523 181 124.505 181 128C181 131.495 176.91 137.477 136.958 192.422C107.359 233.129 91.962 253.485 90.008 254.496C86.272 256.428 83.174 256.365 79.826 254.288" />
    <glyph glyph-name="man-23"
      unicode="&#xEA0D;"
      horiz-adv-x="256" d="M139.5 250.223C135.762 249.354 102.477 237.234 97.477 234.921C90.61 231.745 78.236 219.14 74.657 211.674C71.571 205.238 69.044 194.772 69.017 188.318C69.003 184.843 68.504 183.783 66.062 182.044C64.446 180.893 61.908 177.467 60.422 174.43C57.948 169.374 57.775 168.257 58.367 161.204C59.524 147.418 61.816 142.319 69.286 136.908C72.139 134.841 73.964 132.381 75.564 128.445C78.919 120.19 83.807 112.55 90.25 105.492L96 99.193L96 91.174L96 83.155L92.75 82.129C90.963 81.565 77.8 77.465 63.5 73.018C49.2 68.571 35.235 63.837 32.467 62.499C25.612 59.184 18.536 51.834 14.695 44.037C11.56 37.674 11.494 37.247 11.165 21.316L10.829 5.08L13.369 2.54L15.909 0L130.399 0L244.888 0L247.694 2.411C250.419 4.753 250.51 5.151 250.832 16.242C251.218 29.54 249.996 37.425 246.409 44.768C243.138 51.463 235.729 59.094 229.411 62.277C226.71 63.637 211.113 68.929 194.75 74.036L165 83.323L165 91.142L165 98.96L171.044 105.63C177.783 113.065 184.16 123.178 186.569 130.248C187.482 132.928 188.938 135.163 189.987 135.496C193.039 136.464 199.778 144.546 200.953 148.645C201.56 150.765 202.335 156.2 202.675 160.722C203.438 170.867 201.637 176.439 196.043 181.239L192.244 184.5L191.83 194.5C191.496 202.572 190.916 205.583 188.823 210.12C184.108 220.338 175.724 227.735 165.127 231.027C160.008 232.617 159.583 233.018 156.127 239.531C151.376 248.484 146.236 251.79 139.5 250.223M144.377 227.25C148.7 218.673 150.168 217.419 157.451 216.084C165.236 214.657 170.293 211.06 173.467 204.691C175.743 200.122 176 198.423 176 187.914C176 174.875 176.582 173.405 183 170.231L186.5 168.5L186.302 161.281C186.057 152.38 185.031 150.355 180.093 149.025C175.913 147.899 174.751 146.169 171.56 136.313C169.434 129.746 163.667 120.795 156.625 113.136C153.385 109.612 150.705 105.602 150.076 103.335C149.49 101.226 149.009 94.013 149.006 87.306C149 76.064 149.176 74.916 151.25 72.61C153.038 70.621 160.477 67.926 187.5 59.474C210.004 52.436 222.612 47.995 224.789 46.339C231.596 41.163 235 32.671 235 20.864L235 16L131 16L27 16L27.022 24.25C27.054 36.29 30.869 43.844 39 47.971C40.925 48.948 55.775 53.866 72 58.901C108.061 70.09 109.775 70.71 111.011 73.021C112.583 75.957 112.257 101.473 110.6 105.282C109.83 107.052 106.208 111.858 102.55 115.962C96.205 123.081 91.953 130.505 87.359 142.481C85.714 146.771 84.872 147.675 81.291 148.998C79.004 149.843 76.863 150.804 76.532 151.135C75.468 152.199 73.869 164.343 74.476 166.759C74.867 168.318 76.543 169.732 79.5 171C84.611 173.191 84.674 173.366 85.358 187.233C85.736 194.905 86.39 198.172 88.446 202.663C91.613 209.581 96.81 216.102 101.435 218.96C103.87 220.465 137.602 233.333 140.737 233.953C140.868 233.979 142.506 230.962 144.377 227.25" />
    <glyph glyph-name="chat-content"
      unicode="&#xEA0E;"
      horiz-adv-x="256" d="M7.924 237.419L5.5 234.839L5.5 152L5.5 69.161L7.924 66.581L10.349 64L47.424 63.943L84.5 63.885L105 38.203C125.788 12.159 128.014 10.034 133.145 11.322C134.783 11.733 142.336 20.396 156.377 37.965L177.182 64L214.139 64L251.095 64L253.548 66.646L256 69.292L256 152.191L256 235.091L253.545 237.545L251.091 240L130.72 240L10.349 240L7.924 237.419M240 152L240 80L205.723 80C175.981 80 171.144 79.789 169.17 78.407C167.92 77.531 158.771 66.683 148.84 54.301C133.764 35.503 130.566 32.011 129.463 33.144C128.737 33.89 120.42 44.175 110.98 56C101.54 67.825 92.846 78.047 91.659 78.715C90.086 79.6 80.208 79.939 55.25 79.965L21 80L21 152L21 224L130.5 224L240 224L240 152M74 185.706C68.744 183.047 68.152 174.595 73.039 171.979C74.17 171.374 96.291 171 130.98 171L187.091 171L189.545 173.455C192.848 176.757 192.684 180.47 189.077 184.077L186.154 187L131.327 186.985C89.138 186.974 75.924 186.679 74 185.706M72.881 131.993C70.26 130.462 68.756 125.771 69.912 122.732C71.98 117.292 73.96 117 108.801 117C141.677 117 146.103 117.456 148.021 121.039C149.724 124.221 149.137 128.523 146.686 130.826C144.399 132.974 143.949 133 109.436 132.97C89.346 132.952 73.812 132.537 72.881 131.993" />
    <glyph glyph-name="email-85"
      unicode="&#xEA0F;"
      horiz-adv-x="256" d="M9.229 228.331C8.53 228.049 7.292 226.532 6.479 224.959C5.204 222.493 5 208.813 5 125.615C5 66.599 5.372 28.153 5.957 26.613C8.214 20.677 1.779 20.951 132.06 21.238L251.173 21.5L253.587 24.306L256 27.112L256 125.601L256 224.091L253.545 226.545L251.091 229L130.795 228.921C64.633 228.878 9.928 228.612 9.229 228.331M240 125L240 37L130.5 37L21 37L21 125L21 213L130.5 213L240 213L240 125M50.923 184.077C45.039 178.193 44.089 179.439 87.764 135.764C124.797 98.731 127.767 95.998 131.014 95.977C134.284 95.955 136.931 98.402 173.75 135.489C214.777 176.814 214.618 176.62 212.379 182.455C211.472 184.817 206.274 187.213 203.7 186.455C202.49 186.099 185.64 169.993 166.255 150.664L131.01 115.521L119.255 127.017C112.79 133.34 96.454 149.422 82.953 162.756C65.343 180.149 57.762 187 56.126 187C54.872 187 52.531 185.685 50.923 184.077M60.792 88.208C49.974 77.389 48 74.943 48 72.354C48 68.063 51.969 64 56.16 64C58.997 64 61.057 65.642 72.208 76.792C83.77 88.355 85 89.925 85 93.118C85 97.704 81.645 101 76.978 101C73.964 101 72.156 99.571 60.792 88.208M178.455 98.545C174.077 94.168 175.009 92.059 187.053 79.076C199.144 66.041 201.643 64 205.51 64C209.225 64 213 68.16 213 72.254C213 75.214 211.522 77.061 200.164 88.299C189.084 99.263 186.889 101 184.119 101C182.044 101 180.041 100.132 178.455 98.545" />
    <glyph glyph-name="tail-right"
      unicode="&#xEA10;"
      horiz-adv-x="256" d="M162.455 205.545C160.863 203.954 160 201.957 160 199.864C160 196.969 163.103 193.524 190.213 166.319L220.426 136L116.668 136L12.909 136L10.455 133.545C7.266 130.357 7.265 126.085 10.452 122.646L12.905 120L116.68 120L220.456 120L190.228 89.712C163.749 63.18 160 59.044 160 56.358C160 52.048 163.966 48 168.188 48C171.175 48 174.922 51.451 209.735 86.265C245.389 121.918 248 124.766 248 128C248 131.234 245.389 134.082 209.735 169.735C174.933 204.538 171.174 208 168.19 208C166.04 208 164.063 207.154 162.455 205.545" />
    <glyph glyph-name="stock"
      unicode="&#xEA11;"
      horiz-adv-x="256" d="M6 234C4.025 232.025 4 230.667 4 126C4 21.333 4.025 19.975 6 18C7.978 16.022 9.333 16 130 16C250.667 16 252.022 16.022 254 18C255.975 19.975 256 21.333 256 126C256 230.667 255.975 232.025 254 234C252.022 235.978 250.667 236 130 236C9.333 236 7.978 235.978 6 234M164 201.735L164 179.469L159.01 177.697C152.121 175.25 144.815 167.779 141.987 160.289C140.238 155.655 139.899 153.103 140.289 147.5L140.777 140.5L133.78 132.25C129.932 127.713 126.407 124 125.948 124C125.488 124 118.034 131.869 109.384 141.487C100.733 151.105 92.833 159.236 91.828 159.555C90.823 159.874 89.146 159.864 88.103 159.533C87.06 159.202 79.837 150.171 72.051 139.465C64.266 128.759 57.612 120 57.266 120C56.92 120 52.948 123.6 48.44 128C43.085 133.227 39.46 136 37.982 136C36.467 136 32.465 132.802 25.86 126.313L16 116.626L16 170.313L16 224L90 224L164 224L164 201.735M244 200.024L244 176.049L226.866 153.774C217.443 141.523 209.58 131.324 209.393 131.11C209.206 130.895 206.533 132.622 203.453 134.948C199.242 138.127 198.032 139.588 198.573 140.838C198.969 141.752 199.493 145.2 199.737 148.5C200.636 160.643 192.255 173.696 180.99 177.697L176 179.469L176 201.735L176 224L210 224L244 224L244 200.024M178.03 165.75C191.153 159.121 191.153 140.879 178.03 134.25C172.386 131.399 167.614 131.399 161.97 134.25C148.847 140.879 148.847 159.121 161.97 165.75C164.42 166.987 168.033 168 170 168C171.967 168 175.58 166.987 178.03 165.75M244 92L244 28L210 28L176 28L176 66C176 102.667 175.93 104.07 174 106C172.9 107.1 171.1 108 170 108C168.9 108 167.1 107.1 166 106C164.07 104.07 164 102.667 164 66L164 28L90 28L16 28L16 63.767L16 99.534L26.974 110.474L37.947 121.413L46.845 112.707C52.084 107.58 56.572 104 57.76 104C60.86 104 62.727 106.117 76.931 125.75C84.193 135.787 90.286 144 90.47 144C90.654 144 96.757 137.362 104.033 129.25C111.309 121.137 118.771 113.037 120.616 111.25C126.136 105.902 127.63 106.552 138.178 118.891L147.488 129.781L151.273 126.783C162.241 118.097 177.191 117.942 188.28 126.4L191.797 129.083L197.648 124.221C206.275 117.054 208.652 115.696 211.37 116.378C212.968 116.779 218.661 123.398 228.627 136.441C236.807 147.147 243.613 155.927 243.75 155.953C243.887 155.979 244 127.2 244 92" />
    <glyph glyph-name="security"
      unicode="&#xEA12;"
      horiz-adv-x="256" d="M123.5 240.836C99.834 222.929 56.528 206.981 24.6 204.416C12.976 203.482 12 202.578 12 192.744C12 184.062 14.399 162.506 16.556 151.811C26.948 100.283 56.051 54.109 95.569 26.45C106.31 18.933 126.713 8 130 8C133.283 8 153.68 18.927 164.431 26.445C209.583 58.022 239.28 110.946 246.506 172.714C247.328 179.74 248 188.753 248 192.744C248 202.578 247.024 203.482 235.4 204.416C203.653 206.966 164.192 221.31 137.706 239.927C134.519 242.167 130.919 243.969 129.706 243.932C128.493 243.894 125.7 242.501 123.5 240.836M124 179L124 132L79.042 132L34.085 132L32.15 138.75C28.175 152.62 25.786 166.427 24.46 183.202C23.671 193.173 22.876 192.379 34.685 193.414C57.361 195.401 94.056 208.414 117.5 222.782C120.25 224.468 122.838 225.881 123.25 225.923C123.662 225.965 124 204.85 124 179M142.206 222.857C167.48 207.852 202.622 195.402 225.315 193.414C237.124 192.379 236.329 193.173 235.54 183.202C234.214 166.427 231.825 152.62 227.85 138.75L225.915 132L180.958 132L136 132L136 179C136 204.85 136.205 226 136.456 226C136.707 226 139.294 224.586 142.206 222.857M124 72C124 45.6 123.706 24 123.346 24C122.986 24 119.724 25.643 116.096 27.651C92.976 40.447 69.974 62.773 54.911 87.039C49.402 95.914 39.025 116.608 39.009 118.75C39.002 119.731 48.162 120 81.5 120L124 120L124 72M220.991 118.75C220.975 116.608 210.598 95.914 205.089 87.039C190.026 62.773 167.024 40.447 143.904 27.651C140.276 25.643 137.014 24 136.654 24C136.294 24 136 45.6 136 72L136 120L178.5 120C211.838 120 220.998 119.731 220.991 118.75" />
    <glyph glyph-name="chart-bar-33"
      unicode="&#xEA13;"
      horiz-adv-x="256" d="M158 246C156.9 244.9 156 243.1 156 242C156 240.9 156.9 239.1 158 238C159.877 236.123 161.333 236 181.748 236L203.497 236L166.765 199.268L130.033 162.536L111.207 181.268C97.179 195.225 91.764 200 89.962 200C86.637 200 36 149.542 36 146.229C36 143.374 39.359 140 42.2 140C43.734 140 51.309 146.885 67.197 162.718L89.994 185.437L108.807 166.718C122.791 152.805 128.239 148 130.031 148C131.871 148 141.86 157.408 172.221 187.733L212 227.466L212 205.733C212 185.333 212.123 183.877 214 182C215.1 180.9 216.9 180 218 180C219.1 180 220.9 180.9 222 182C223.912 183.912 224 185.333 224 214.345C224 242.473 223.866 244.811 222.171 246.345C220.555 247.808 216.843 248 190.171 248C161.333 248 159.912 247.912 158 246M190 158C188.036 156.036 188 154.667 188 82C188 9.333 188.036 7.964 190 6C191.911 4.089 193.333 4 222 4C250.667 4 252.089 4.089 254 6C255.964 7.964 256 9.333 256 82C256 154.667 255.964 156.036 254 158C252.089 159.911 250.667 160 222 160C193.333 160 191.911 159.911 190 158M244 82L244 16L222 16L200 16L200 82L200 148L222 148L244 148L244 82M98 110C96.053 108.053 96 106.667 96 58C96 9.333 96.053 7.947 98 6C99.911 4.089 101.333 4 130 4C158.667 4 160.089 4.089 162 6C163.947 7.947 164 9.333 164 58C164 106.667 163.947 108.053 162 110C160.089 111.911 158.667 112 130 112C101.333 112 99.911 111.911 98 110M152 58L152 16L130 16L108 16L108 58L108 100L130 100L152 100L152 58M6 62C4.103 60.103 4 58.667 4 34C4 9.333 4.103 7.897 6 6C7.911 4.089 9.333 4 38 4C66.667 4 68.089 4.089 70 6C71.897 7.897 72 9.333 72 34C72 58.667 71.897 60.103 70 62C68.089 63.911 66.667 64 38 64C9.333 64 7.911 63.911 6 62M60 34L60 16L38 16L16 16L16 34L16 52L38 52L60 52L60 34" />
    <glyph glyph-name="building"
      unicode="&#xEA14;"
      horiz-adv-x="256" d="M126 250C124.267 248.267 124 246.667 124 238L124 228L96 228C69.333 228 67.905 227.905 66 226C64.049 224.049 64 222.667 64 170C64 117.333 64.049 115.951 66 114C68.546 111.454 71.454 111.454 74 114C75.947 115.947 76 117.333 76 166L76 216L130 216L184 216L184 178C184 141.333 184.07 139.93 186 138C188.546 135.454 191.454 135.454 194 138C195.937 139.937 196 141.333 196 182C196 222.667 195.937 224.063 194 226C192.095 227.905 190.667 228 164 228L136 228L136 238C136 246.667 135.733 248.267 134 250C131.454 252.546 128.546 252.546 126 250M98 198C96.9 196.9 96 195.1 96 194C96 192.9 96.9 191.1 98 190C99.911 188.089 101.333 188 130 188C158.667 188 160.089 188.089 162 190C163.1 191.1 164 192.9 164 194C164 195.1 163.1 196.9 162 198C160.089 199.911 158.667 200 130 200C101.333 200 99.911 199.911 98 198M98 174C96.9 172.9 96 171.1 96 170C96 168.9 96.9 167.1 98 166C99.911 164.089 101.333 164 130 164C158.667 164 160.089 164.089 162 166C163.1 167.1 164 168.9 164 170C164 171.1 163.1 172.9 162 174C160.089 175.911 158.667 176 130 176C101.333 176 99.911 175.911 98 174M98 150C96.9 148.9 96 147.1 96 146C96 144.9 96.9 143.1 98 142C99.911 140.089 101.333 140 130 140C158.667 140 160.089 140.089 162 142C163.1 143.1 164 144.9 164 146C164 147.1 163.1 148.9 162 150C160.089 151.911 158.667 152 130 152C101.333 152 99.911 151.911 98 150M142 122C140.049 120.049 140 118.667 140 66L140 12L130 12L120 12L120 54C120 94.667 119.937 96.063 118 98C116.058 99.942 114.667 100 70 100C25.333 100 23.942 99.942 22 98C20.058 96.058 20 94.667 20 50C20 5.333 20.058 3.942 22 2C23.975 0.025 25.333 0 130 0C234.667 0 236.025 0.025 238 2C239.954 3.954 240 5.333 240 62C240 118.667 239.954 120.046 238 122C236.058 123.942 234.667 124 190 124C145.333 124 143.942 123.942 142 122M228 62L228 12L190 12L152 12L152 62L152 112L190 112L228 112L228 62M174 90C172.9 88.9 172 87.1 172 86C172 84.9 172.9 83.1 174 82C175.81 80.19 177.333 80 190 80C202.667 80 204.19 80.19 206 82C207.1 83.1 208 84.9 208 86C208 87.1 207.1 88.9 206 90C204.19 91.81 202.667 92 190 92C177.333 92 175.81 91.81 174 90M108 50L108 12L70 12L32 12L32 50L32 88L70 88L108 88L108 50M54 66C52.9 64.9 52 63.1 52 62C52 60.9 52.9 59.1 54 58C55.81 56.19 57.333 56 70 56C82.667 56 84.19 56.19 86 58C87.1 59.1 88 60.9 88 62C88 63.1 87.1 64.9 86 66C84.19 67.81 82.667 68 70 68C57.333 68 55.81 67.81 54 66M174 66C172.9 64.9 172 63.1 172 62C172 60.9 172.9 59.1 174 58C175.81 56.19 177.333 56 190 56C202.667 56 204.19 56.19 206 58C207.1 59.1 208 60.9 208 62C208 63.1 207.1 64.9 206 66C204.19 67.81 202.667 68 190 68C177.333 68 175.81 67.81 174 66M54 42C52.9 40.9 52 39.1 52 38C52 36.9 52.9 35.1 54 34C55.81 32.19 57.333 32 70 32C82.667 32 84.19 32.19 86 34C87.1 35.1 88 36.9 88 38C88 39.1 87.1 40.9 86 42C84.19 43.81 82.667 44 70 44C57.333 44 55.81 43.81 54 42M174 42C172.9 40.9 172 39.1 172 38C172 36.9 172.9 35.1 174 34C175.81 32.19 177.333 32 190 32C202.667 32 204.19 32.19 206 34C207.1 35.1 208 36.9 208 38C208 39.1 207.1 40.9 206 42C204.19 43.81 202.667 44 190 44C177.333 44 175.81 43.81 174 42" />
    <glyph glyph-name="calendar-grid-61"
      unicode="&#xEA15;"
      horiz-adv-x="256" d="M54 250C52.267 248.267 52 246.667 52 238L52 228L30 228C9.333 228 7.879 227.879 6 226C4.024 224.024 4 222.667 4 114C4 5.333 4.024 3.976 6 2C7.978 0.022 9.333 0 130 0C250.667 0 252.022 0.022 254 2C255.976 3.976 256 5.333 256 114C256 222.667 255.976 224.024 254 226C252.121 227.879 250.667 228 230 228L208 228L208 238C208 252.094 208.121 252 190 252C171.879 252 172 252.094 172 238L172 228L130 228L88 228L88 238C88 252.094 88.121 252 70 252C57.333 252 55.81 251.81 54 250M76 222L76 204L70 204L64 204L64 222L64 240L70 240L76 240L76 222M196 222L196 204L190 204L184 204L184 222L184 240L190 240L196 240L196 222M52 206C52 191.906 51.879 192 70 192C88.121 192 88 191.906 88 206L88 216L130 216L172 216L172 206C172 191.906 171.879 192 190 192C208.121 192 208 191.906 208 206L208 216L226 216L244 216L244 194L244 172L130 172L16 172L16 194L16 216L34 216L52 216L52 206M244 86L244 12L130 12L16 12L16 86L16 160L130 160L244 160L244 86M54 130C52.063 128.063 52 126.667 52 86C52 45.333 52.063 43.937 54 42C55.947 40.053 57.333 40 106 40C154.667 40 156.053 40.053 158 42C159.852 43.852 160 45.333 160 62L160 80L182 80C202.667 80 204.121 80.121 206 82C207.879 83.879 208 85.333 208 106C208 126.667 207.879 128.121 206 130C204.036 131.964 202.667 132 130 132C57.333 132 55.964 131.964 54 130M100 106L100 92L82 92L64 92L64 106L64 120L82 120L100 120L100 106M148 106L148 92L130 92L112 92L112 106L112 120L130 120L148 120L148 106M196 106L196 92L178 92L160 92L160 106L160 120L178 120L196 120L196 106M100 66L100 52L82 52L64 52L64 66L64 80L82 80L100 80L100 66M148 66L148 52L130 52L112 52L112 66L112 80L130 80L148 80L148 66" />
    <glyph glyph-name="stablegrowth"
      unicode="&#xEA16;"
      horiz-adv-x="256" d="M121 251.125C111.356 247.949 103.945 240.922 101.477 232.612C100.538 229.449 100 223.332 100 215.818L100 204L103.902 204L107.804 204L108.152 217.325C108.478 229.812 108.669 230.905 111.183 234.702C115.346 240.991 120.19 243.5 128.164 243.5C133.958 243.5 135.382 243.108 139.075 240.5C145.981 235.622 147.444 231.651 147.829 216.75L148.159 204L152.079 204L156 204L156 215.818C156 223.332 155.462 229.449 154.523 232.612C151.428 243.032 140.994 250.959 129.519 251.608C126.209 251.795 122.375 251.578 121 251.125M85.2 194.8C83.492 193.092 83.492 142.908 85.2 141.2C86.925 139.475 169.075 139.475 170.8 141.2C172.508 142.908 172.508 193.092 170.8 194.8C169.075 196.525 86.925 196.525 85.2 194.8M133.545 173.545C137.72 169.371 136.501 163.279 131.038 161.016C127.025 159.354 122.611 161.11 120.995 165.012C117.725 172.907 127.522 179.569 133.545 173.545M189.2 158.8C187.463 157.063 187.463 10.937 189.2 9.2C190.914 7.486 249.086 7.486 250.8 9.2C252.537 10.937 252.537 157.063 250.8 158.8C249.086 160.514 190.914 160.514 189.2 158.8M244 84L244 16L220 16L196 16L196 84L196 152L220 152L244 152L244 84M97.2 110.8C95.471 109.071 95.471 10.929 97.2 9.2C98.914 7.486 157.086 7.486 158.8 9.2C160.529 10.929 160.529 109.071 158.8 110.8C157.086 112.514 98.914 112.514 97.2 110.8M152 60L152 16L128 16L104 16L104 60L104 104L128 104L152 104L152 60M5.2 62.8C3.492 61.092 3.492 10.908 5.2 9.2C6.914 7.486 65.086 7.486 66.8 9.2C68.508 10.908 68.508 61.092 66.8 62.8C65.086 64.514 6.914 64.514 5.2 62.8M60 36L60 16L36 16L12 16L12 36L12 56L36 56L60 56L60 36" />
    <glyph glyph-name="small-hexagon"
      unicode="&#xEA18;"
      horiz-adv-x="256" d="M110.848 256L221.7066666666667 192V64L110.848 0L0 64V192z" />
    <glyph glyph-name="handout-token"
      unicode="&#xEA1A;"
      horiz-adv-x="256" d="M44 132H48C66.8 132 87.6 122 98 108H128C146 108 164 90 164 72C164 69.6 162.4 68 160 68H88C85.6 68 84 69.6 84 72S85.6 76 88 76H155.6C153.2 88.4 140.4 100 128 100H96C94.8 100 93.6 100.8 92.8 101.6C84 114.4 64.8 124 48 124H44M161.6 84H208C225.6 84 232.4 78 234.8 74L124 29.2C116 26 106.8 26.4 99.2 30.4L42 59.6C40 60.4 37.6 60 36.8 58S36.4 53.6 38.4 52.8L95.6 23.6C100.8 20.8 106.8 19.6 112.8 19.6C117.6 19.6 122.4 20.4 127.2 22.4L241.6 68.8C243.2 69.6 244.4000000000001 71.2 244.0000000000001 73.2C244.0000000000001 74 240.0000000000001 92.4 208 92.4H156.8C160 88 161.6 84 161.6 84zM44 40V144C44 146.4 42.4 148 40 148H8C5.6 148 4 146.4 4 144V40C4 37.6 5.6 36 8 36H40C42.4 36 44 37.6 44 40zM12 140H36V44H12V140zM148 117.6C115.6 117.6 89.6 144 89.6 176S115.6 234.4 148 234.4S206.4 208.4 206.4 176S180.4 117.6 148 117.6zM148 226.4C120 226.4 97.6 204 97.6 176S120 125.6 148 125.6S198.4 148.4 198.4 176S176 226.4 148 226.4zM147.6 176L162.4 167.2V184.4M176.8 192.8L169.2 188.4V164L176.8 159.6V192.8zM147.6 176L162.4 184.4L147.6 192.8M119.2 192.8L126.8 188.4V197.2L119.2 192.8zM148.4 209.2L133.6 200.8V184.4L141.2 180V196.4L148.4 200.4L169.2 188.4L176.8 192.8L148.4 209.2zM141.2 172V180L133.6 184.4V167.6L141.2 172zM119.2 192.8V159.6L126.8 164V188.4L119.2 192.8zM169.2 164V154.8L176.8 159.6L169.2 164zM141.2 172L133.6 167.6L148.4 159.2L154.8 155.2L148 151.6L126.8 164L119.2 159.6V159.2L148 142.4L162.4 150.8V159.2L148 168L141.2 172z" />
    <glyph glyph-name="exchange-token"
      unicode="&#xEA1B;"
      horiz-adv-x="256" d="M38.162 251.008C8.218 240.235 -5.049 208.486 8.774 180.68C11.106 175.987 14.457 171.422 18.447 167.5C46.305 140.119 92.672 153.341 102.468 191.46C108.964 216.735 93.131 243.672 67.091 251.649C60.425 253.692 44.65 253.342 38.162 251.008M64.081 245.167C77.743 241.6 89.337 231.366 94.187 218.592C96.047 213.693 96.5 210.531 96.5 202.447C96.5 192.868 96.326 192.043 92.806 184.947C88.293 175.85 80.988 168.435 72 163.83C65.7 160.603 65.13 160.5 53.5 160.5C42.016 160.5 41.218 160.638 34.926 163.717C27.349 167.425 19.523 174.786 15.711 181.79C3.708 203.843 11.699 230.844 33.391 241.533C44.707 247.109 52.917 248.081 64.081 245.167M47.25 228.236L41 224.568L41.016 210.034L41.032 195.5L49.054 191.057C59.152 185.464 59.898 184.614 56.093 183.039C53.357 181.905 52.531 182.189 44.101 187.161L35.048 192.5L35.024 206.75C35.011 214.588 34.732 221 34.404 221C34.077 221 32.49 220.061 30.877 218.913L27.946 216.825L28.223 202.725L28.5 188.625L40.916 181.148L53.333 173.672L59.665 177.086C65.666 180.321 65.997 180.692 65.999 184.161C66 187.684 65.662 188.034 56.968 193.52L47.937 199.219L48.218 210.175C48.492 220.822 48.575 221.176 51.149 222.736C53.724 224.296 54.047 224.2 62.649 219.31L71.5 214.279L72 199.677L72.5 185.076L75.75 187.136L79 189.196L79 203.361L79 217.526L66.5 224.763C59.625 228.743 53.888 231.978 53.75 231.952C53.613 231.925 50.688 230.253 47.25 228.236M157.239 210.74C147.758 201.246 140 192.804 140 191.979C140 189.997 174.074 156 176.06 156C178.035 156 180 157.964 180 159.937C180 160.782 174.037 167.465 166.75 174.788L153.5 188.103L176.5 187.801C198.744 187.51 199.66 187.418 204.379 185.008C209.655 182.314 214.809 176.94 217.674 171.145C219.116 168.228 219.578 164.125 219.988 150.606C220.432 135.947 220.732 133.566 222.25 132.611C223.525 131.809 224.475 131.811 225.75 132.618C227.307 133.604 227.5 135.643 227.5 151.113C227.5 168.06 227.429 168.652 224.7 174.5C221.054 182.315 214.256 189.144 206.61 192.672C200.594 195.449 200.144 195.5 177.232 195.996L153.964 196.5L166.982 209.486C174.142 216.628 180 223.175 180 224.036C180 226.041 178.043 228 176.039 228C175.181 228 166.721 220.233 157.239 210.74M53 210.117L53 203.234L59.072 199.617C62.411 197.628 65.336 196 65.572 196C65.807 196 65.995 199.263 65.988 203.25L65.976 210.5L60.059 213.75C56.804 215.538 53.885 217 53.571 217C53.257 217 53 213.903 53 210.117M29.021 122.525C28.128 121.45 27.899 116.513 28.174 104.275C28.529 88.435 28.706 87.159 31.349 81.39C34.85 73.746 41.663 66.956 49.5 63.3C55.404 60.545 55.874 60.492 78.767 60L102.035 59.5L89.017 46.514C81.858 39.372 76 32.825 76 31.964C76 29.959 77.957 28 79.961 28C81.96 28 116 62.023 116 64.021C116 66.003 81.926 100 79.94 100C77.965 100 76 98.036 76 96.063C76 95.218 81.963 88.535 89.25 81.212L102.5 67.897L79.5 68.199L56.5 68.5L51 71.599C44.875 75.05 38.879 82.123 37.13 87.962C36.508 90.035 36 98.452 36 106.666C36 121.983 35.525 124 31.922 124C31 124 29.694 123.336 29.021 122.525M172.25 101.338C171.296 100.953 171 94.814 171 75.417L171 50L164.582 50C154.252 50 155 51.717 155 28C155 9.968 155.21 7.134 156.582 6.607C157.452 6.273 178.512 6 203.382 6C237.218 6 248.902 6.302 249.8 7.2C251.495 8.895 251.495 47.105 249.8 48.8C249.102 49.498 245.756 50 241.8 50L235 50L235 74.8C235 92.756 234.669 99.931 233.8 100.8C232.917 101.683 224.791 101.979 203.05 101.921C186.798 101.878 172.938 101.615 172.25 101.338M227 54L227 14L217 14L207 14L207 16.878C207 20.513 204.787 22.414 201.513 21.593C199.431 21.07 199 20.365 199 17.481L199 14L189 14L179 14L179 54L179 94L203 94L227 94L227 54M188.25 85.361C187.563 85.071 187 83.529 187 81.936C187 79.718 187.558 78.898 189.379 78.441C195.523 76.899 200.755 79.981 198.393 83.75C197.308 85.481 190.932 86.494 188.25 85.361M208.25 85.361C207.563 85.071 207 83.529 207 81.936C207 79.718 207.558 78.898 209.379 78.441C215.523 76.899 220.755 79.981 218.393 83.75C217.308 85.481 210.932 86.494 208.25 85.361M188.25 69.361C187.563 69.071 187 67.529 187 65.936C187 63.718 187.558 62.898 189.379 62.441C195.523 60.899 200.755 63.981 198.393 67.75C197.308 69.481 190.932 70.494 188.25 69.361M208.25 69.361C207.563 69.071 207 67.529 207 65.936C207 63.718 207.558 62.898 209.379 62.441C215.523 60.899 220.755 63.981 218.393 67.75C217.308 69.481 210.932 70.494 208.25 69.361M188.25 53.361C187.563 53.071 187 51.529 187 49.936C187 47.718 187.558 46.898 189.379 46.441C195.523 44.899 200.755 47.981 198.393 51.75C197.308 53.481 190.932 54.494 188.25 53.361M208.25 53.361C207.563 53.071 207 51.529 207 49.936C207 47.718 207.558 46.898 209.379 46.441C215.523 44.899 220.755 47.981 218.393 51.75C217.308 53.481 210.932 54.494 208.25 53.361M171 28L171 14L167 14L163 14L163 28L163 42L167 42L171 42L171 28M243 28L243 14L239 14L235 14L235 28L235 42L239 42L243 42L243 28M188.25 37.361C187.563 37.071 187 35.529 187 33.936C187 31.718 187.558 30.898 189.379 30.441C195.523 28.899 200.755 31.981 198.393 35.75C197.308 37.481 190.932 38.494 188.25 37.361M208.25 37.361C207.563 37.071 207 35.529 207 33.936C207 31.718 207.558 30.898 209.379 30.441C215.523 28.899 220.755 31.981 218.393 35.75C217.308 37.481 210.932 38.494 208.25 37.361" />
    <glyph glyph-name="pin-2"
      unicode="&#xEA1C;"
      horiz-adv-x="256" d="M33.5 243.12C17.119 238.795 8.246 222.375 13.676 206.437C15.994 199.634 23.872 191.868 30.782 189.572L36 187.839L36 171.42C36 155.577 35.929 155 33.967 155C30.402 155 22.344 150.219 18.666 145.923C9.107 134.755 9.849 119.021 20.435 108.435C28.479 100.391 38.778 98.001 49.563 101.676C56.366 103.994 64.132 111.872 66.428 118.782L68.161 124L84 124L99.839 124L101.572 118.782C103.932 111.678 111.678 103.932 118.782 101.572L124 99.839L124 83.42C124 67.577 123.929 67 121.967 67C118.402 67 110.344 62.219 106.666 57.923C97.107 46.755 97.849 31.021 108.435 20.435C116.479 12.391 126.778 10.001 137.563 13.676C144.366 15.994 152.132 23.872 154.428 30.782L156.161 36L172 36L187.839 36L189.572 30.782C191.868 23.872 199.634 15.994 206.437 13.676C217.222 10.001 227.521 12.391 235.565 20.435C249.222 34.091 245.818 55.856 228.638 64.735C224.418 66.917 222.161 67.391 216 67.391C209.839 67.391 207.582 66.917 203.362 64.735C197.004 61.449 191.578 55.255 189.453 48.859L187.839 44L172 44L156.161 44L154.547 48.859C153.659 51.532 151.322 55.6 149.354 57.899C145.659 62.216 137.605 67 134.033 67C132.071 67 132 67.577 132 83.42L132 99.839L137.218 101.572C144.128 103.868 152.006 111.634 154.324 118.437C158.957 132.034 153.31 146.186 140.638 152.735C133.301 156.527 122.699 156.527 115.362 152.735C109.004 149.449 103.578 143.255 101.453 136.859L99.839 132L84 132L68.161 132L66.547 136.859C65.659 139.532 63.322 143.6 61.354 145.899C57.659 150.216 49.605 155 46.033 155C44.071 155 44 155.577 44 171.42L44 187.839L49.218 189.572C56.128 191.868 64.006 199.634 66.324 206.437C72.346 224.112 60.683 242.058 42.254 243.471C39.089 243.714 35.15 243.556 33.5 243.12M121.5 243.12C108.867 239.785 100 228.6 100 216C100 200.942 112.942 188 128 188C143.058 188 156 200.942 156 216C156 230.362 144.756 242.359 130.254 243.471C127.089 243.714 123.15 243.556 121.5 243.12M209.5 243.12C196.867 239.785 188 228.6 188 216C188 200.942 200.942 188 216 188C231.058 188 244 200.942 244 216C244 230.362 232.756 242.359 218.254 243.471C215.089 243.714 211.15 243.556 209.5 243.12M50.531 232.673C52.542 231.306 55.379 228.458 56.835 226.344C59.036 223.147 59.48 221.406 59.471 216C59.461 210.514 59.013 208.837 56.596 205.249C52.285 198.849 47.83 196.5 40 196.5C32.17 196.5 27.715 198.849 23.404 205.249C20.987 208.837 20.539 210.514 20.529 216C20.52 221.406 20.964 223.147 23.165 226.344C25.873 230.276 30.999 234.329 34.525 235.325C38.741 236.515 46.854 235.171 50.531 232.673M138.531 232.673C140.542 231.306 143.379 228.458 144.835 226.344C147.036 223.147 147.48 221.406 147.471 216C147.461 210.514 147.013 208.837 144.596 205.249C140.285 198.849 135.83 196.5 128 196.5C120.17 196.5 115.715 198.849 111.404 205.249C108.987 208.837 108.539 210.514 108.529 216C108.52 221.406 108.964 223.147 111.165 226.344C113.873 230.276 118.999 234.329 122.525 235.325C126.741 236.515 134.854 235.171 138.531 232.673M226.531 232.673C228.542 231.306 231.379 228.458 232.835 226.344C235.036 223.147 235.48 221.406 235.471 216C235.461 210.514 235.013 208.837 232.596 205.249C228.285 198.849 223.83 196.5 216 196.5C208.17 196.5 203.715 198.849 199.404 205.249C196.987 208.837 196.539 210.514 196.529 216C196.52 221.406 196.964 223.147 199.165 226.344C201.873 230.276 206.999 234.329 210.525 235.325C214.741 236.515 222.854 235.171 226.531 232.673M209.5 155.12C196.867 151.785 188 140.6 188 128C188 112.942 200.942 100 216 100C231.058 100 244 112.942 244 128C244 142.362 232.756 154.359 218.254 155.471C215.089 155.714 211.15 155.556 209.5 155.12M50.531 144.673C52.542 143.306 55.379 140.458 56.835 138.344C59.036 135.147 59.48 133.406 59.471 128C59.461 122.514 59.013 120.837 56.596 117.249C52.285 110.849 47.83 108.5 40 108.5C32.17 108.5 27.715 110.849 23.404 117.249C20.987 120.837 20.539 122.514 20.529 128C20.52 133.406 20.964 135.147 23.165 138.344C25.873 142.276 30.999 146.329 34.525 147.325C38.741 148.515 46.854 147.171 50.531 144.673M138.531 144.673C140.542 143.306 143.379 140.458 144.835 138.344C147.036 135.147 147.48 133.406 147.471 128C147.461 122.514 147.013 120.837 144.596 117.249C140.285 110.849 135.83 108.5 128 108.5C120.17 108.5 115.715 110.849 111.404 117.249C108.987 120.837 108.539 122.514 108.529 128C108.52 133.406 108.964 135.147 111.165 138.344C113.873 142.276 118.999 146.329 122.525 147.325C126.741 148.515 134.854 147.171 138.531 144.673M226.531 144.673C228.542 143.306 231.379 140.458 232.835 138.344C235.036 135.147 235.48 133.406 235.471 128C235.461 122.514 235.013 120.837 232.596 117.249C228.285 110.849 223.83 108.5 216 108.5C208.17 108.5 203.715 110.849 199.404 117.249C196.987 120.837 196.539 122.514 196.529 128C196.52 133.406 196.964 135.147 199.165 138.344C201.873 142.276 206.999 146.329 210.525 147.325C214.741 148.515 222.854 147.171 226.531 144.673M33.5 67.12C20.867 63.785 12 52.6 12 40C12 24.942 24.942 12 40 12C55.058 12 68 24.942 68 40C68 54.362 56.756 66.359 42.254 67.471C39.089 67.714 35.15 67.556 33.5 67.12M50.531 56.673C52.542 55.306 55.379 52.458 56.835 50.344C59.036 47.147 59.48 45.406 59.471 40C59.461 34.514 59.013 32.837 56.596 29.249C52.285 22.849 47.83 20.5 40 20.5C32.17 20.5 27.715 22.849 23.404 29.249C20.987 32.837 20.539 34.514 20.529 40C20.52 45.406 20.964 47.147 23.165 50.344C25.873 54.276 30.999 58.329 34.525 59.325C38.741 60.515 46.854 59.171 50.531 56.673M138.531 56.673C140.542 55.306 143.379 52.458 144.835 50.344C147.036 47.147 147.48 45.406 147.471 40C147.461 34.514 147.013 32.837 144.596 29.249C140.285 22.849 135.83 20.5 128 20.5C120.17 20.5 115.715 22.849 111.404 29.249C108.987 32.837 108.539 34.514 108.529 40C108.52 45.406 108.964 47.147 111.165 50.344C113.873 54.276 118.999 58.329 122.525 59.325C126.741 60.515 134.854 59.171 138.531 56.673M226.531 56.673C228.542 55.306 231.379 52.458 232.835 50.344C235.036 47.147 235.48 45.406 235.471 40C235.461 34.514 235.013 32.837 232.596 29.249C228.285 22.849 223.83 20.5 216 20.5C208.17 20.5 203.715 22.849 199.404 29.249C196.987 32.837 196.539 34.514 196.529 40C196.52 45.406 196.964 47.147 199.165 50.344C201.873 54.276 206.999 58.329 210.525 59.325C214.741 60.515 222.854 59.171 226.531 56.673" />
    <glyph glyph-name="round-dollar"
      unicode="&#xEA1D;"
      horiz-adv-x="256" d="M105.7173333333333 160.0906666666667C105.7173333333333 150.0426666666667 113.1253333333333 147.968 122.6666666666667 144V173.5733333333333C113.808 172.24 105.7173333333333 169.0666666666667 105.7173333333333 160.0906666666667zM133.3333333333333 117.3333333333334V86.8266666666667C144.5546666666667 88.5493333333334 150.9546666666667 93.36 150.9546666666667 101.2693333333334C150.9546666666667 110.7093333333334 142.816 113.84 133.3333333333333 117.3333333333334zM128 250.6666666666667C60.3573333333333 250.6666666666667 5.3333333333333 195.6373333333334 5.3333333333333 128S60.3573333333333 5.3333333333333 128 5.3333333333333S250.6666666666667 60.3626666666667 250.6666666666667 128S195.6426666666667 250.6666666666667 128 250.6666666666667zM163.3866666666667 79.8453333333333C156.624 73.8506666666667 146.0853333333333 70.736 133.3333333333333 69.3333333333333V48H122.6666666666667V68.1813333333333C106.8533333333333 68.4373333333333 92.6133333333333 70.8586666666667 82.4746666666667 75.4506666666667V95.6266666666667C93.7546666666667 90.1173333333333 109.6906666666667 86.2026666666667 122.6666666666667 86.064V121.8293333333333L113.3653333333333 124.8C102.9066666666667 128.816 95.2693333333333 133.6106666666667 90.4586666666667 139.1946666666667C85.6426666666667 144.7733333333334 83.2373333333333 151.6746666666667 83.2373333333333 159.8986666666667C83.2373333333333 168.6986666666667 86.6666666666667 175.9306666666667 93.52 181.6106666666667C100.3733333333333 187.28 110.9386666666667 190.784 122.6666666666667 192V208H133.3333333333333V192C146.2773333333333 191.5573333333333 159.3333333333333 189.1626666666667 170.9386666666667 184.3786666666667L163.9573333333333 166.88C153.9466666666667 170.832 143.216 173.1893333333333 133.3333333333333 173.9573333333334V139.1466666666667L141.3866666666667 136.3733333333333C153.4986666666667 131.7173333333333 161.8826666666667 126.8106666666667 166.5386666666667 121.648C171.1893333333333 116.4853333333333 173.52 110.1706666666667 173.52 102.7146666666667C173.5253333333333 93.4613333333334 170.144 85.84 163.3866666666667 79.8453333333333z" />
    <glyph glyph-name="round-euro"
      unicode="&#xEA1E;"
      horiz-adv-x="256" d="M128 250.6666666666667C60.3573333333333 250.6666666666667 5.3333333333333 195.6373333333334 5.3333333333333 128S60.3573333333333 5.3333333333333 128 5.3333333333333S250.6666666666667 60.3626666666667 250.6666666666667 128S195.6426666666667 250.6666666666667 128 250.6666666666667zM152.3253333333333 147.5253333333334V132.88H105.9946666666667C105.6906666666667 128.88 105.7866666666667 125.5466666666667 105.9946666666667 120.5546666666667H145.4986666666667V106.5813333333334H107.6373333333334C111.7706666666667 87.5893333333334 123.5146666666667 78.0906666666667 142.8853333333333 78.0906666666667C152.1173333333333 78.0906666666667 161.5733333333333 79.9786666666667 171.2533333333333 83.7546666666667V65.216C162.7946666666667 61.4986666666667 152.9546666666667 59.648 141.7226666666667 59.648C126.1653333333333 59.648 113.5306666666667 63.664 103.8186666666667 71.7013333333333C94.1013333333333 79.7386666666667 87.7546666666667 91.36 84.7893333333333 106.5813333333333H69.3333333333333V120.5546666666667H83.2373333333333C82.9333333333333 124.6293333333333 82.8373333333333 127.3813333333333 83.2373333333333 132.88H69.3333333333333V147.5253333333333L84.5973333333333 147.312C87.0506666666667 162.592 93.216 174.5813333333333 103.088 183.2906666666667C112.9653333333333 191.9946666666667 125.712 196.3466666666666 141.3386666666667 196.3466666666666C154.2453333333333 196.3466666666666 165.8026666666667 193.6693333333333 176 188.3093333333333L167.8666666666667 171.232C157.9253333333334 175.856 149.0826666666667 178.1706666666667 141.3386666666667 178.1706666666667C132.2346666666667 178.1706666666667 124.7946666666667 175.616 119.0186666666667 170.5013333333333C113.2373333333334 165.3866666666667 109.3813333333334 157.6533333333333 107.4453333333334 147.3066666666667L152.3253333333333 147.5253333333334z" />
    <glyph glyph-name="ethereum-logo"
      unicode="&#xEA20;"
      horiz-adv-x="256" d="M128 256C57.0666666666667 256 0 198.9333333333333 0 128S57.0666666666667 0 128 0S256 57.0666666666667 256 128S198.9333333333333 256 128 256zM126.4 43.2L75.7333333333334 114.6666666666667L126.4 84.8V43.2zM126.4 95.4666666666667L75.7333333333334 125.3333333333334L126.4 147.7333333333334V95.4666666666667zM126.4 151.4666666666667L77.3333333333333 130.1333333333334L126.4 212.8V151.4666666666667zM129.6 212.8L179.7333333333333 129.6L129.6 151.4666666666667V212.8zM129.6 43.2V85.3333333333333L180.2666666666667 115.2L129.6 43.2zM129.6 95.4666666666667V147.7333333333334L180.8 125.3333333333334L129.6 95.4666666666667z" />
    <glyph glyph-name="uk"
      unicode="&#xEA21;"
      horiz-adv-x="256" d="M245.3333333333333 224H10.6666666666667A10.666666666666666 10.666666666666666 0 0 1 0 213.3333333333334V42.6666666666667A10.666666666666666 10.666666666666666 0 0 1 10.6666666666667 32H245.3333333333333A10.666666666666666 10.666666666666666 0 0 1 256 42.6666666666667V213.3333333333334A10.666666666666666 10.666666666666666 0 0 1 245.3333333333333 224zM256 213.3333333333334A10.666666666666666 10.666666666666666 0 0 1 245.3333333333334 224H217.808L149.3333333333333 171.328V224H106.6666666666667V171.328L38.192 224H10.6666666666667A10.666666666666666 10.666666666666666 0 0 1 0 213.3333333333334V199.5413333333334L65.2746666666667 149.3333333333334H0V106.6666666666667H65.2746666666667L0 56.4533333333334V42.6666666666667A10.666666666666666 10.666666666666666 0 0 1 10.6666666666667 32H38.192L106.6666666666667 84.672V32H149.3333333333333V84.672L217.808 32H245.3333333333333A10.666666666666666 10.666666666666666 0 0 1 256 42.6666666666667V56.4533333333333L190.7253333333334 106.6666666666667H256V149.3333333333334H190.7253333333334L256 199.5413333333334V213.3333333333334zM256 138.6666666666667H138.6666666666667V224H117.3333333333333V138.6666666666667H0V117.3333333333334H117.3333333333333V32H138.6666666666667V117.3333333333334H256zM250.672 222.3626666666667L155.7333333333333 149.3333333333334H173.2266666666667L256 213.0026666666667V213.3333333333334C256 217.2373333333334 253.7973333333334 220.5013333333333 250.672 222.3626666666667zM173.2266666666666 106.6666666666667H155.7333333333333L250.672 33.6373333333333C253.7973333333333 35.4986666666667 256 38.7626666666667 256 42.6666666666667V42.9973333333334L173.2266666666666 106.6666666666667zM82.7733333333333 106.6666666666667L0 42.9973333333333V42.6666666666667C0 38.7626666666667 2.2026666666667 35.4986666666667 5.328 33.6373333333333L100.2666666666667 106.6666666666667H82.7733333333333zM82.7733333333333 149.3333333333334H100.2666666666667L5.328 222.3626666666667C2.2026666666667 220.5013333333333 0 217.2373333333334 0 213.3333333333334V213.0026666666667L82.7733333333333 149.3333333333334z" />
    <glyph glyph-name="shape-rectangle"
      unicode="&#xEA22;"
      horiz-adv-x="256" d="M16 256H240A16 16 0 0 0 256 240V16A16 16 0 0 0 240 0H16A16 16 0 0 0 0 16V240A16 16 0 0 0 16 256z" />
    <glyph glyph-name="token-icon"
      unicode="&#xEA23;"
      horiz-adv-x="256" d="M110.4 127.4666666666667L166.9333333333333 94.4V160.5333333333334M221.8666666666667 192L192 174.9333333333333V80.5333333333334L221.8666666666667 63.4666666666667V192zM166.9333333333333 160.5333333333333L110.9333333333333 193.0666666666667L109.3333333333333 193.6L109.8666666666667 127.4666666666667M0 192L29.8666666666667 174.9333333333333V209.0666666666667L0 192zM110.9333333333333 256L54.4 223.4666666666667V160L84.2666666666667 142.9333333333333V206.9333333333333L111.4666666666666 221.8666666666667L192 174.9333333333333L221.8666666666667 192L110.9333333333333 256zM84.2666666666667 112.5333333333334V143.4666666666667L54.4 160.5333333333334V96L84.2666666666667 112.5333333333333zM0 192V64L29.8666666666667 81.0666666666667V174.9333333333333L0 192zM192 81.0666666666667V47.4666666666667L221.8666666666667 64.5333333333333L192 81.0666666666667zM84.2666666666667 112.5333333333333L54.4 95.4666666666667L110.9333333333334 62.9333333333333L136 48L110.9333333333334 33.6L29.8666666666667 81.0666666666667L0 64L110.9333333333333 0L166.9333333333333 32.5333333333333V65.6L110.9333333333333 98.1333333333333L84.2666666666667 112.5333333333333zM110.4 127.4666666666667L166.9333333333333 94.4V160.5333333333334M221.8666666666667 192L192 174.9333333333333V80.5333333333334L221.8666666666667 63.4666666666667V192zM166.9333333333333 160.5333333333333L110.9333333333333 193.0666666666667L109.3333333333333 193.6L109.8666666666667 127.4666666666667M0 192L29.8666666666667 174.9333333333333V209.0666666666667L0 192zM110.9333333333333 256L54.4 223.4666666666667V160L84.2666666666667 142.9333333333333V206.9333333333333L111.4666666666666 221.8666666666667L192 174.9333333333333L221.8666666666667 192L110.9333333333333 256zM84.2666666666667 112.5333333333334V143.4666666666667L54.4 160.5333333333334V96L84.2666666666667 112.5333333333333zM0 192V64L29.8666666666667 81.0666666666667V174.9333333333333L0 192zM192 81.0666666666667V47.4666666666667L221.8666666666667 64.5333333333333L192 81.0666666666667zM84.2666666666667 112.5333333333333L54.4 95.4666666666667L110.9333333333334 62.9333333333333L136 48L110.9333333333334 33.6L29.8666666666667 81.0666666666667L0 64L110.9333333333333 0L166.9333333333333 32.5333333333333V65.6L110.9333333333333 98.1333333333333L84.2666666666667 112.5333333333333z" />
    <glyph glyph-name="leaseum-logo"
      unicode="&#xEA25;"
      horiz-adv-x="256" d="M174.16 61.12C173.36 62.48 171.12 63.76 168.56 63.76C165.28 63.76 163.68 62.4 163.68 60.64C163.68 58.56 166.08 58 168.96 57.68C173.92 57.04 178.48 55.76 178.48 50.16C178.48 44.88 173.84 42.64 168.56 42.64C163.68 42.64 160 44.16 158.24 48.48L162 50.4C163.04 47.76 165.76 46.64 168.64 46.64C171.44 46.64 174.08 47.6 174.08 50.16C174.08 52.4 171.76 53.28 168.56 53.68C163.68 54.24 159.28 55.52 159.28 60.88C159.28 65.76 164.08 67.76 168.48 67.76C172.16 67.76 176 66.72 177.76 63.04L174.16 61.12zM200.24 47.52H186.96V52.88H199.76V57.04H186.96V62.48H200.24V66.8H182.48V43.12H200.24V47.52zM91.44 66.88V43.12H108.08V47.28H95.92V66.88H91.44zM129.28 47.52H116V52.88H128.8V57.04H116V62.48H129.28V66.8H111.52V43.12H129.28V47.52zM152.64 43.12H157.52L146.88 66.8H142L131.36 43.12H136.24L138.24 47.6H150.64L152.64 43.12zM148.8 51.76H140L144.4 61.84L148.8 51.76zM221.12 66.8V53.2C221.12 49.12 219.04 46.64 215.36 46.64S209.2 48.88 209.2 53.2V66.8H204.8V53.2C204.8 46.08 209.68 42.56 215.36 42.56C221.36 42.56 225.6 46.16 225.6 53.2V66.8H221.12zM251.52 43.12H256V66.8H250.88L243.44 56.64L236 66.8H230.88V43.12H235.36V60.32L242.88 50H243.76L251.52 60.32V43.12zM93.68 25.68V22.16H91.44V34.08H97.04C102.88 34.08 102.88 25.68 97.04 25.68H93.68zM93.68 27.68H97.04C99.92 27.68 99.92 31.92 97.04 31.92H93.68V27.68zM120.96 24.4H114.72L113.68 22.16H111.28L116.64 34.08H119.12L124.48 22.16H122L120.96 24.4zM117.84 31.6L115.6 26.56H120L117.84 31.6zM146.64 22.16H144.08L140.64 26.16H138.32V22.16H136.08V34.08H141.76C144.56 34.08 146.08 32.16 146.08 30.16C146.08 28.56 145.36 26.88 143.04 26.4L146.64 22.32V22.16zM138.32 32V28.16H141.76C143.2 28.16 143.84 29.12 143.84 30.08S143.2000000000001 32 141.76 32H138.32zM161.12 22.16H163.3600000000001V32H167.12V34.08H157.28V32H161.04V22.16zM180.96 34.08H179.12V22.16H181.3600000000001V30.08L187.68 22.16H189.5200000000001V34.08H187.28V26.08L180.96 34.08zM211.5200000000001 24.4H204.8V27.12H211.28V29.2H204.8V31.92H211.52V34.08H202.56V22.16H211.52V24.4zM234.6400000000001 22.16H232.0800000000001L228.6400000000001 26.16H226.4V22.16H224.16V34.08H229.84C232.64 34.08 234.16 32.16 234.16 30.16C234.16 28.56 233.44 26.88 231.12 26.4L234.72 22.32V22.16zM226.4 32V28.16H229.84C231.28 28.16 231.92 29.12 231.92 30.08S231.2800000000001 32 229.84 32H226.4zM255.6 32.08C254.7200000000001 33.92 252.8 34.48 250.88 34.48C248.7200000000001 34.48 246.2400000000001 33.44 246.2400000000001 31.04C246.2400000000001 28.4 248.4800000000001 27.68 250.9600000000001 27.44C252.5600000000001 27.28 253.7600000000001 26.8 253.7600000000001 25.68C253.7600000000001 24.4 252.4000000000001 23.92 251.0400000000001 23.92C249.6000000000001 23.92 248.2400000000001 24.48 247.6800000000001 25.84L245.8400000000001 24.88C246.7200000000001 22.72 248.6400000000001 21.92 251.04 21.92C253.68 21.92 256.0800000000001 23.04 256.0800000000001 25.68C256.0800000000001 28.56 253.7600000000001 29.2 251.2800000000001 29.44C249.8400000000001 29.6 248.6400000000001 29.92 248.6400000000001 30.96C248.6400000000001 31.84 249.4400000000001 32.56 251.1200000000001 32.56C252.4000000000001 32.56 253.5200000000001 31.92 253.9200000000001 31.2L255.6000000000001 32.08zM38.4 44.56V67.6L38.8 67.36L58.4 56.08L38.4 44.56zM0 67.12L10.4 61.12V73.12L0 67.12zM38.8 89.52L19.2 78.24V56.08L29.6 50.08V72.24L38.8 77.52L67.2 61.12L77.6 67.12L38.8 89.52zM38.4 44.56L58.4 56.08V32.96L38.4 44.56M77.52 67.12L67.12 61.12V28.32L77.52 22.32V67.12zM29.6 39.44V50.08L19.2 56.08V33.44L29.6 39.44zM0 67.12V22.32L10.4 28.32V61.12L0 67.12zM77.52 22.4L67.12 16.4V28.4L77.52 22.4zM29.6 39.44L19.2 33.44L38.8 22.16L47.6 17.04L38.8 11.92L10.4 28.32L0 22.4L38.8 0L58.4 11.28V22.8L38.8 34.16L29.6 39.44z" />
    <glyph glyph-name="leaseum-logo-2"
      unicode="&#xEA26;"
      horiz-adv-x="256" d="M174.16 61.12C173.36 62.48 171.12 63.76 168.56 63.76C165.28 63.76 163.68 62.4 163.68 60.64C163.68 58.56 166.08 58 168.96 57.68C173.92 57.04 178.48 55.76 178.48 50.16C178.48 44.88 173.84 42.64 168.56 42.64C163.68 42.64 160 44.16 158.24 48.48L162 50.4C163.04 47.76 165.76 46.64 168.64 46.64C171.44 46.64 174.08 47.6 174.08 50.16C174.08 52.4 171.76 53.28 168.56 53.68C163.68 54.24 159.28 55.52 159.28 60.88C159.28 65.76 164.08 67.76 168.48 67.76C172.16 67.76 176 66.72 177.76 63.04L174.16 61.12zM200.24 47.52H186.96V52.88H199.76V57.04H186.96V62.48H200.24V66.8H182.48V43.12H200.24V47.52zM91.44 66.88V43.12H108.08V47.28H95.92V66.88H91.44zM129.28 47.52H116V52.88H128.8V57.04H116V62.48H129.28V66.8H111.52V43.12H129.28V47.52zM152.64 43.12H157.52L146.88 66.8H142L131.36 43.12H136.24L138.24 47.6H150.64L152.64 43.12zM148.8 51.76H140L144.4 61.84L148.8 51.76zM221.12 66.8V53.2C221.12 49.12 219.04 46.64 215.36 46.64S209.2 48.88 209.2 53.2V66.8H204.8V53.2C204.8 46.08 209.68 42.56 215.36 42.56C221.36 42.56 225.6 46.16 225.6 53.2V66.8H221.12zM251.52 43.12H256V66.8H250.88L243.44 56.64L236 66.8H230.88V43.12H235.36V60.32L242.88 50H243.76L251.52 60.32V43.12zM93.68 25.68V22.16H91.44V34.08H97.04C102.88 34.08 102.88 25.68 97.04 25.68H93.68zM93.68 27.68H97.04C99.92 27.68 99.92 31.92 97.04 31.92H93.68V27.68zM120.96 24.4H114.72L113.68 22.16H111.28L116.64 34.08H119.12L124.48 22.16H122L120.96 24.4zM117.84 31.6L115.6 26.56H120L117.84 31.6zM146.64 22.16H144.08L140.64 26.16H138.32V22.16H136.08V34.08H141.76C144.56 34.08 146.08 32.16 146.08 30.16C146.08 28.56 145.36 26.88 143.04 26.4L146.64 22.32V22.16zM138.32 32V28.16H141.76C143.2 28.16 143.84 29.12 143.84 30.08S143.2000000000001 32 141.76 32H138.32zM161.12 22.16H163.3600000000001V32H167.12V34.08H157.28V32H161.04V22.16zM180.96 34.08H179.12V22.16H181.3600000000001V30.08L187.68 22.16H189.5200000000001V34.08H187.28V26.08L180.96 34.08zM211.5200000000001 24.4H204.8V27.12H211.28V29.2H204.8V31.92H211.52V34.08H202.56V22.16H211.52V24.4zM234.6400000000001 22.16H232.0800000000001L228.6400000000001 26.16H226.4V22.16H224.16V34.08H229.84C232.64 34.08 234.16 32.16 234.16 30.16C234.16 28.56 233.44 26.88 231.12 26.4L234.72 22.32V22.16zM226.4 32V28.16H229.84C231.28 28.16 231.92 29.12 231.92 30.08S231.2800000000001 32 229.84 32H226.4zM255.6 32.08C254.7200000000001 33.92 252.8 34.48 250.88 34.48C248.7200000000001 34.48 246.2400000000001 33.44 246.2400000000001 31.04C246.2400000000001 28.4 248.4800000000001 27.68 250.9600000000001 27.44C252.5600000000001 27.28 253.7600000000001 26.8 253.7600000000001 25.68C253.7600000000001 24.4 252.4000000000001 23.92 251.0400000000001 23.92C249.6000000000001 23.92 248.2400000000001 24.48 247.6800000000001 25.84L245.8400000000001 24.88C246.7200000000001 22.72 248.6400000000001 21.92 251.04 21.92C253.68 21.92 256.0800000000001 23.04 256.0800000000001 25.68C256.0800000000001 28.56 253.7600000000001 29.2 251.2800000000001 29.44C249.8400000000001 29.6 248.6400000000001 29.92 248.6400000000001 30.96C248.6400000000001 31.84 249.4400000000001 32.56 251.1200000000001 32.56C252.4000000000001 32.56 253.5200000000001 31.92 253.9200000000001 31.2L255.6000000000001 32.08zM38.4 44.56V67.6L38.8 67.36L58.4 56.08L38.4 44.56zM0 67.12L10.4 61.12V73.12L0 67.12zM38.8 89.52L19.2 78.24V56.08L29.6 50.08V72.24L38.8 77.52L67.2 61.12L77.6 67.12L38.8 89.52zM38.4 44.56L58.4 56.08V32.96L38.4 44.56M77.52 67.12L67.12 61.12V28.32L77.52 22.32V67.12zM29.6 39.44V50.08L19.2 56.08V33.44L29.6 39.44zM0 67.12V22.32L10.4 28.32V61.12L0 67.12zM77.52 22.4L67.12 16.4V28.4L77.52 22.4zM29.6 39.44L19.2 33.44L38.8 22.16L47.6 17.04L38.8 11.92L10.4 28.32L0 22.4L38.8 0L58.4 11.28V22.8L38.8 34.16L29.6 39.44z" />
    <glyph glyph-name="timeline-hexagon"
      unicode="&#xEA27;"
      horiz-adv-x="256" d="M128 256L238.848 192V64L128 0L17.152 64V192L128 256zM128 213.3333333333334L201.8986666666667 170.6666666666667V85.3333333333333L128 42.6666666666667L54.1013333333333 85.3333333333333V170.6666666666667L128 213.3333333333334z" />
    <glyph glyph-name="small-hexagon-2"
      unicode="&#xEA28;"
      horiz-adv-x="256" d="M110.848 256L221.7066666666667 192V64L110.848 0L0 64V192z" />
  </font>
</defs>
</svg>
