<?xml version="1.0" encoding="utf-8"?>
<!-- Generator: Adobe Illustrator 21.0.0, SVG Export Plug-In . SVG Version: 6.00 Build 0)  -->
<svg version="1.1" id="Layer_1" xmlns="http://www.w3.org/2000/svg" xmlns:xlink="http://www.w3.org/1999/xlink" x="0px" y="0px"
	 viewBox="0 0 320 111.9" style="enable-background:new 0 0 320 111.9;" xml:space="preserve">
<style type="text/css">
	.st0{fill:#FFFFFF;}
</style>
<path class="st0" d="M217.7,35.5c-1-1.7-3.8-3.3-7-3.3c-4.1,0-6.1,1.7-6.1,3.9c0,2.6,3,3.3,6.6,3.7c6.2,0.8,11.9,2.4,11.9,9.4
	c0,6.6-5.8,9.4-12.4,9.4c-6.1,0-10.7-1.9-12.9-7.3l4.7-2.4c1.3,3.3,4.7,4.7,8.3,4.7c3.5,0,6.8-1.2,6.8-4.4c0-2.8-2.9-3.9-6.9-4.4
	c-6.1-0.7-11.6-2.3-11.6-9c0-6.1,6-8.6,11.5-8.6c4.6,0,9.4,1.3,11.6,5.9L217.7,35.5z M250.3,52.5h-16.6v-6.7h16v-5.2h-16v-6.8h16.6
	v-5.4h-22.2V58h22.2V52.5z M114.3,28.3V58h20.8v-5.2h-15.2V28.3H114.3z M161.6,52.5h-16.6v-6.7h16v-5.2h-16v-6.8h16.6v-5.4h-22.2V58
	h22.2V52.5z M190.8,58h6.1l-13.3-29.6h-6.1L164.2,58h6.1l2.5-5.6h15.5L190.8,58z M186,47.2h-11l5.5-12.6L186,47.2z M276.4,28.4v17
	c0,5.1-2.6,8.2-7.2,8.2c-4.6,0-7.7-2.8-7.7-8.2v-17h-5.5v17c0,8.9,6.1,13.3,13.2,13.3c7.5,0,12.8-4.5,12.8-13.3v-17H276.4z
	 M314.4,58h5.6V28.4h-6.4l-9.3,12.7L295,28.4h-6.4V58h5.6V36.5l9.4,12.9h1.1l9.7-12.9V58z"/>
<path class="st0" d="M117.1,79.8v4.4h-2.8V69.3c2.3,0,4.7,0,7,0c7.3,0,7.3,10.5,0,10.5H117.1z M117.1,77.3h4.2c3.6,0,3.6-5.3,0-5.3
	h-4.2V77.3z M151.2,81.4h-7.8l-1.3,2.8h-3l6.7-14.9h3.1l6.7,14.9h-3.1L151.2,81.4z M147.3,72.4l-2.8,6.3h5.5L147.3,72.4z
	 M183.3,84.2h-3.2l-4.3-5h-2.9v5h-2.8V69.3c2.4,0,4.7,0,7.1,0c3.5,0,5.4,2.4,5.4,4.9c0,2-0.9,4.1-3.8,4.7l4.5,5.1V84.2z M172.9,71.9
	v4.8h4.3c1.8,0,2.6-1.2,2.6-2.4c0-1.2-0.8-2.4-2.6-2.4H172.9z M201.4,84.2h2.8V71.9h4.7v-2.6h-12.3v2.6h4.7V84.2z M226.2,69.3h-2.3
	v14.9h2.8v-9.9l7.9,9.9h2.3V69.3h-2.8v10L226.2,69.3z M264.4,81.4H256v-3.4h8.1v-2.6H256V72h8.4v-2.7h-11.2v14.9h11.2V81.4z
	 M293.3,84.2h-3.2l-4.3-5H283v5h-2.8V69.3c2.4,0,4.7,0,7.1,0c3.5,0,5.4,2.4,5.4,4.9c0,2-0.9,4.1-3.8,4.7l4.5,5.1V84.2z M283,71.9
	v4.8h4.3c1.8,0,2.6-1.2,2.6-2.4c0-1.2-0.8-2.4-2.6-2.4H283z M319.5,71.8c-1.1-2.3-3.5-3-5.9-3c-2.7,0-5.8,1.3-5.8,4.3
	c0,3.3,2.8,4.2,5.9,4.5c2,0.2,3.5,0.8,3.5,2.2c0,1.6-1.7,2.2-3.4,2.2c-1.8,0-3.5-0.7-4.2-2.4l-2.3,1.2c1.1,2.7,3.5,3.7,6.5,3.7
	c3.3,0,6.3-1.4,6.3-4.7c0-3.6-2.9-4.4-6-4.7c-1.8-0.2-3.3-0.6-3.3-1.9c0-1.1,1-2,3.1-2c1.6,0,3,0.8,3.5,1.7L319.5,71.8z"/>
<path class="st0" d="M48,56.2l0-28.8l0.5,0.3l24.5,14.1L48,56.2z M0,28l13,7.5l0-15L0,28z M48.5,0L48.5,0L24,14.1v27.7l13,7.5
	l0-27.7L48.5,15L84,35.5l13-7.5L48.5,0z"/>
<path class="st0" d="M48,56.2l25-14.4l0,0v28.3v0.6L48,56.2 M96.9,28L96.9,28l-13,7.5v41l13,7.5h0L96.9,28z M37,62.6V49.3l-13-7.5
	v28.3L37,62.6z M0,28l0,56l13-7.5v-41L0,28z"/>
<path class="st0" d="M96.9,83.9l-13,7.5v-15L96.9,83.9z M37,62.6l-13,7.5v0l24.5,14.1l11,6.4l-11,6.4L13,76.5L0,83.9v0l48.5,28h0
	l24.5-14.1l0-14.4L48.5,69.2L37,62.6z"/>
</svg>
