<svg xmlns="http://www.w3.org/2000/svg" style="display: none;"><symbol id="nc-logo-facebook" viewBox="0 0 48 48"><title>logo facebook</title><g><g class="nc-icon-wrapper"><path fill="currentColor" d="M46,0H2C0.89543,0,0,0.89543,0,2v44c0,1.10457,0.89543,2,2,2h23.63829V29.4119h-6.25529v-7.24417h6.25529 v-5.34235c0-6.19977,3.78661-9.57566,9.31723-9.57566c2.64922,0,4.92609,0.19724,5.58963,0.2854v6.47912l-3.83577,0.00174 c-3.00786,0-3.59026,1.42929-3.59026,3.52668v4.62507h7.17347l-0.93401,7.24417h-6.23946V48H46c1.10457,0,2-0.89543,2-2V2 C48,0.89543,47.10457,0,46,0z"/></g></g></symbol><symbol id="nc-logo-twitter" viewBox="0 0 48 48"><title>logo twitter</title><g><g class="nc-icon-wrapper"><path fill="currentColor" d="M48,9.1c-1.8,0.8-3.7,1.3-5.7,1.6c2-1.2,3.6-3.1,4.3-5.4c-1.9,1.1-4,1.9-6.3,2.4c-1.8-1.9-4.4-3.1-7.2-3.1 c-5.4,0-9.8,4.4-9.8,9.8c0,0.8,0.1,1.5,0.3,2.2C15.5,16.2,8.2,12.3,3.3,6.3C2.5,7.8,2,9.4,2,11.2c0,3.4,1.7,6.4,4.4,8.2 c-1.6-0.1-3.1-0.5-4.5-1.2c0,0,0,0.1,0,0.1c0,4.8,3.4,8.8,7.9,9.7c-0.8,0.2-1.7,0.3-2.6,0.3c-0.6,0-1.3-0.1-1.9-0.2 c1.3,3.9,4.9,6.8,9.2,6.8c-3.4,2.6-7.6,4.2-12.2,4.2c-0.8,0-1.6,0-2.3-0.1c4.4,2.8,9.5,4.4,15.1,4.4c18.1,0,28-15,28-28 c0-0.4,0-0.9,0-1.3C45,12.8,46.7,11.1,48,9.1z"/></g></g></symbol><symbol id="nc-logo-linkedin" viewBox="0 0 48 48"><title>logo linkedin</title><g><g class="nc-icon-wrapper"><path fill="currentColor" d="M46,0H2C0.9,0,0,0.9,0,2v44c0,1.1,0.9,2,2,2h44c1.1,0,2-0.9,2-2V2C48,0.9,47.1,0,46,0z M14.2,40.9H7.1V18 h7.1V40.9z M10.7,14.9c-2.3,0-4.1-1.8-4.1-4.1c0-2.3,1.8-4.1,4.1-4.1c2.3,0,4.1,1.8,4.1,4.1C14.8,13,13,14.9,10.7,14.9z M40.9,40.9 h-7.1V29.8c0-2.7,0-6.1-3.7-6.1c-3.7,0-4.3,2.9-4.3,5.9v11.3h-7.1V18h6.8v3.1h0.1c0.9-1.8,3.3-3.7,6.7-3.7c7.2,0,8.5,4.7,8.5,10.9 V40.9z"/></g></g></symbol><symbol id="nc-pin-3" viewBox="0 0 64 64"><title>pin 3</title><g><g class="nc-icon-wrapper"><path fill="currentColor" d="M32,1C20.694,1,9,9.639,9,24.095C9,39.24,30.383,60.797,31.293,61.707C31.48,61.895,31.735,62,32,62 s0.52-0.105,0.707-0.293C33.617,60.797,55,39.24,55,24.095C55,9.639,43.306,1,32,1z M32,32c-4.418,0-8-3.582-8-8s3.582-8,8-8 s8,3.582,8,8S36.418,32,32,32z"/></g></g></symbol><symbol id="nc-square-pin" viewBox="0 0 48 48"><title>square pin</title><g><g class="nc-icon-wrapper"><polyline data-color="color-2" fill="none" stroke-linecap="round" stroke-miterlimit="10" points=" 10,34 4,46 44,46 38,34 " stroke-linejoin="round"/> <path fill="none" stroke="currentColor" stroke-linecap="round" stroke-miterlimit="10" d="M38,16 c0,8.641-14,22.75-14,22.75S10,24.641,10,16c0-8.859,7.235-14,14-14S38,7.141,38,16z" stroke-linejoin="round"/> <circle fill="none" stroke="currentColor" stroke-linecap="round" stroke-miterlimit="10" cx="24" cy="16" r="4" stroke-linejoin="round"/></g></g></symbol><symbol id="nc-at-sign" viewBox="0 0 48 48"><title>at sign</title><g><g class="nc-icon-wrapper"> <path d="M35.387,43.93c-5.026,1.921-20.362,5.061-28.681-4.511C-1.352,30.147,2.146,16.113,8.18,9.1,13.632,2.755,24.9-.176,34.781,3.833S46.3,17.115,45.958,22.462s-1.993,11.11-7.365,11.528-6.239-4.594-6.585-7.017.953-12.781.953-12.781C21.177,10.6,17.018,16.865,15.718,20.707s-1.733,9.857,3.119,12.447S30.1,32.4,32.008,26.972" fill="none" stroke="currentColor" stroke-miterlimit="10" data-cap="butt" stroke-linecap="round" stroke-linejoin="round"/> </g></g></symbol><symbol id="nc-send" viewBox="0 0 48 48"><title>send</title><g><g class="nc-icon-wrapper"><polyline data-cap="butt" fill="none" stroke="currentColor" stroke-miterlimit="10" points="44,4 14,28 14,42 21.2,33.5 " stroke-linejoin="round" stroke-linecap="round"/> <polygon fill="none" stroke="currentColor" stroke-linecap="round" stroke-miterlimit="10" points="4,20 44,4 36,44 " stroke-linejoin="round"/></g></g></symbol><symbol id="nc-stre-right" viewBox="0 0 48 48"><title>stre right</title><g><g class="nc-icon-wrapper"><path fill="currentColor" d="M17.618,47.177l-3.235-2.354L29.527,24L14.382,3.177l3.235-2.354l16,22c0.51,0.702,0.51,1.651,0,2.354 L17.618,47.177z"/></g></g></symbol><symbol id="nc-stre-right-2" viewBox="0 0 24 24"><title>stre right 2</title><g><g class="nc-icon-wrapper"><polyline data-cap="butt" fill="none" stroke="currentColor" stroke-miterlimit="10" points="8,1 16,12 8,23 " stroke-linejoin="round" stroke-linecap="round"/></g></g></symbol><symbol id="nc-man-23" viewBox="0 0 48 48"><title>man 23</title><g><g class="nc-icon-wrapper"><path fill-rule="evenodd" clip-rule="evenodd" fill="none" stroke="currentColor" stroke-linecap="round" stroke-miterlimit="10" d=" M40.79,36.684L29,33v-3.876c0-0.574,0.217-1.14,0.643-1.526c1.878-1.706,3.296-4.127,3.951-6.624c1.13-0.104,2.083-0.968,2.246-2.14 l0.275-1.981c0.189-1.361-0.757-2.616-2.114-2.815v-3.196c0-3.006-2.442-5.455-5.455-5.455l-1.412-2.824 c-0.223-0.447-0.791-0.675-1.261-0.507L19.14,4.46C16.313,5.47,14,8.752,14,11.754v2.284c-1.357,0.199-2.302,1.454-2.114,2.815 l0.275,1.981c0.163,1.173,1.116,2.036,2.246,2.14c0.654,2.498,2.073,4.918,3.951,6.624C18.783,27.985,19,28.55,19,29.124V33 L7.21,36.684C4.706,37.467,3,39.787,3,42.411V46h42v-3.589C45,39.787,43.295,37.467,40.79,36.684z" transform="translate(0, 0)" stroke-linejoin="round"/></g></g></symbol><symbol id="nc-chat-content" viewBox="0 0 48 48"><title>chat content</title><g><g class="nc-icon-wrapper"><polygon fill="none" stroke="currentColor" stroke-linecap="round" stroke-miterlimit="10" points="46,4 2,4 2,34 16,34 24,44 32,34 46,34 " stroke-linejoin="round"/> <line data-color="color-2" fill="none" stroke-linecap="round" stroke-miterlimit="10" x1="14" y1="14" x2="34" y2="14" stroke-linejoin="round"/> <line data-color="color-2" fill="none" stroke-linecap="round" stroke-miterlimit="10" x1="14" y1="24" x2="26" y2="24" stroke-linejoin="round"/></g></g></symbol><symbol id="nc-email-85" viewBox="0 0 48 48"><title>email 85</title><g><g class="nc-icon-wrapper"><polyline data-color="color-2" fill="none" stroke-linecap="round" stroke-miterlimit="10" points=" 38,14 24,28 10,14 " stroke-linejoin="round"/> <rect x="2" y="6" fill="none" stroke="currentColor" stroke-linecap="round" stroke-miterlimit="10" width="44" height="36" stroke-linejoin="round"/> <line data-color="color-2" fill="none" stroke-linecap="round" stroke-miterlimit="10" x1="14" y1="30" x2="10" y2="34" stroke-linejoin="round"/> <line data-color="color-2" fill="none" stroke-linecap="round" stroke-miterlimit="10" x1="34" y1="30" x2="38" y2="34" stroke-linejoin="round"/></g></g></symbol><symbol id="nc-tail-right" viewBox="0 0 32 32"><title>tail right</title><g><g class="nc-icon-wrapper"><line data-cap="butt" data-color="color-2" fill="none" stroke-miterlimit="10" x1="2" y1="16" x2="30" y2="16" stroke-linejoin="round" stroke-linecap="round"/> <polyline fill="none" stroke="currentColor" stroke-linecap="round" stroke-miterlimit="10" points="21,7 30,16 21,25 " stroke-linejoin="round"/></g></g></symbol><symbol id="nc-stock" viewBox="0 0 64 64"><title>stock</title><g><g class="nc-icon-wrapper"><polyline data-cap="butt" data-color="color-2" fill="none" stroke-miterlimit="10" points="47.134,29.107 52,33 62,20 " stroke-linejoin="round" stroke-linecap="round"/> <polyline data-cap="butt" data-color="color-2" fill="none" stroke-miterlimit="10" points="2,38 9,31 14,36 22,25 31,35 36.56,28.534 " stroke-linejoin="round" stroke-linecap="round"/> <rect x="2" y="6" fill="none" stroke="currentColor" stroke-linecap="round" stroke-miterlimit="10" width="60" height="52" stroke-linejoin="round"/> <line fill="none" stroke="currentColor" stroke-linecap="round" stroke-miterlimit="10" x1="42" y1="38" x2="42" y2="58" stroke-linejoin="round"/> <line fill="none" stroke="currentColor" stroke-linecap="round" stroke-miterlimit="10" x1="42" y1="6" x2="42" y2="20" stroke-linejoin="round"/> <circle data-color="color-2" fill="none" stroke-linecap="round" stroke-miterlimit="10" cx="42" cy="26" r="6" stroke-linejoin="round"/></g></g></symbol><symbol id="nc-security" viewBox="0 0 64 64"><title>security</title><g><g class="nc-icon-wrapper"><line data-cap="butt" data-color="color-2" fill="none" stroke-miterlimit="10" x1="32" y1="60" x2="32" y2="4" stroke-linejoin="round" stroke-linecap="round"/> <line data-cap="butt" data-color="color-2" fill="none" stroke-miterlimit="10" x1="6.978" y1="32" x2="57.022" y2="32" stroke-linejoin="round" stroke-linecap="round"/> <path fill="none" stroke="currentColor" stroke-linecap="round" stroke-miterlimit="10" d="M32,4c-8,6-20,10-28,10 c0,18.666,9.334,38,28,46c18.666-8,28-27.334,28-46C52,14,40,10,32,4z" stroke-linejoin="round"/></g></g></symbol><symbol id="nc-chart-bar-33" viewBox="0 0 64 64"><title>chart bar 33</title><g><g class="nc-icon-wrapper"><rect x="25" y="37" fill="none" stroke="currentColor" stroke-linecap="round" stroke-miterlimit="10" width="14" height="24" stroke-linejoin="round"/> <rect x="2" y="49" fill="none" stroke="currentColor" stroke-linecap="round" stroke-miterlimit="10" width="14" height="12" stroke-linejoin="round"/> <rect x="48" y="25" fill="none" stroke="currentColor" stroke-linecap="round" stroke-miterlimit="10" width="14" height="36" stroke-linejoin="round"/> <polyline data-cap="butt" data-color="color-2" fill="none" stroke-miterlimit="10" points="10,27 22,15 32,25 54,3 " stroke-linejoin="round" stroke-linecap="round"/> <polyline data-color="color-2" fill="none" stroke-linecap="round" stroke-miterlimit="10" points=" 40,3 54,3 54,17 " stroke-linejoin="round"/></g></g></symbol><symbol id="nc-building" viewBox="0 0 64 64"><title>building</title><g><g class="nc-icon-wrapper"><polyline data-color="color-2" fill="none" stroke-linecap="round" stroke-miterlimit="10" points=" 47,28 47,8 17,8 17,34 " stroke-linejoin="round"/> <line fill="none" stroke="currentColor" stroke-linecap="round" stroke-miterlimit="10" x1="28" y1="62" x2="36" y2="62" stroke-linejoin="round"/> <line data-color="color-2" fill="none" stroke-linecap="round" stroke-miterlimit="10" x1="32" y1="2" x2="32" y2="8" stroke-linejoin="round"/> <rect x="6" y="40" fill="none" stroke="currentColor" stroke-linecap="round" stroke-miterlimit="10" width="22" height="22" stroke-linejoin="round"/> <rect x="36" y="34" fill="none" stroke="currentColor" stroke-linecap="round" stroke-miterlimit="10" width="22" height="28" stroke-linejoin="round"/> <line data-color="color-2" fill="none" stroke-linecap="round" stroke-miterlimit="10" x1="25" y1="15" x2="39" y2="15" stroke-linejoin="round"/> <line data-color="color-2" fill="none" stroke-linecap="round" stroke-miterlimit="10" x1="25" y1="21" x2="39" y2="21" stroke-linejoin="round"/> <line data-color="color-2" fill="none" stroke-linecap="round" stroke-miterlimit="10" x1="25" y1="27" x2="39" y2="27" stroke-linejoin="round"/> <line fill="none" stroke="currentColor" stroke-linecap="round" stroke-miterlimit="10" x1="14" y1="48" x2="20" y2="48" stroke-linejoin="round"/> <line fill="none" stroke="currentColor" stroke-linecap="round" stroke-miterlimit="10" x1="44" y1="42" x2="50" y2="42" stroke-linejoin="round"/> <line fill="none" stroke="currentColor" stroke-linecap="round" stroke-miterlimit="10" x1="44" y1="48" x2="50" y2="48" stroke-linejoin="round"/> <line fill="none" stroke="currentColor" stroke-linecap="round" stroke-miterlimit="10" x1="44" y1="54" x2="50" y2="54" stroke-linejoin="round"/> <line fill="none" stroke="currentColor" stroke-linecap="round" stroke-miterlimit="10" x1="14" y1="54" x2="20" y2="54" stroke-linejoin="round"/></g></g></symbol><symbol id="nc-calendar-grid-61" viewBox="0 0 64 64"><title>calendar grid 61</title><g><g class="nc-icon-wrapper"><line fill="none" stroke="currentColor" stroke-linecap="round" stroke-miterlimit="10" x1="62" y1="22" x2="2" y2="22" stroke-linejoin="round"/> <polyline fill="none" stroke="currentColor" stroke-linecap="round" stroke-miterlimit="10" points="50,8 62,8 62,62 2,62 2,8 14,8 " stroke-linejoin="round"/> <line fill="none" stroke="currentColor" stroke-linecap="round" stroke-miterlimit="10" x1="20" y1="8" x2="44" y2="8" stroke-linejoin="round"/> <rect data-color="color-2" x="14" y="2" fill="none" stroke-linecap="round" stroke-miterlimit="10" width="6" height="12" stroke-linejoin="round"/> <rect data-color="color-2" x="44" y="2" fill="none" stroke-linecap="round" stroke-miterlimit="10" width="6" height="12" stroke-linejoin="round"/> <polygon data-color="color-2" fill="none" stroke-linecap="round" stroke-miterlimit="10" points=" 14,32 14,42 14,52 38,52 38,42 50,42 50,32 " stroke-linejoin="round"/> <line data-color="color-2" fill="none" stroke-linecap="round" stroke-miterlimit="10" x1="38" y1="32" x2="38" y2="42" stroke-linejoin="round"/> <line data-color="color-2" fill="none" stroke-linecap="round" stroke-miterlimit="10" x1="26" y1="34" x2="26" y2="52" stroke-linejoin="round"/> <line data-color="color-2" fill="none" stroke-linecap="round" stroke-miterlimit="10" x1="38" y1="42" x2="14" y2="42" stroke-linejoin="round"/></g></g></symbol><symbol id="nc-stablegrowth" viewBox="0 0 64 64"><title>stablegrowth</title><g><g class="nc-icon-wrapper" fill="currentColor"><g class="nc-icon-wrapper" fill="currentColor"><path fill="none" stroke="currentColor" stroke-width="2" stroke-linecap="round" stroke-miterlimit="10" stroke-linejoin="round" d="M25 37h14v24H25z"/><path fill="none" stroke="currentColor" stroke-width="2" stroke-linecap="round" stroke-miterlimit="10" stroke-linejoin="round" d="M2 49h14v12H2z"/><path fill="none" stroke="currentColor" stroke-width="2" stroke-linecap="round" stroke-miterlimit="10" stroke-linejoin="round" d="M48 25h14v36H48z"/><path data-color="color-2" d="M27 8c0-2.757 2.243-5 5-5s5 2.243 5 5v5h2V8c0-3.86-3.14-7-7-7s-7 3.14-7 7v5h2V8z"/><path data-color="color-2" d="M22 29h20a1 1 0 0 0 1-1V16a1 1 0 0 0-1-1H22a1 1 0 0 0-1 1v12a1 1 0 0 0 1 1zm10-9a2 2 0 1 1 .001 3.999A2 2 0 0 1 32 20z"/></g></g></g></symbol><symbol id="nc-small-hexagon" viewBox="0 0 24 24"><title>small hexagon</title><g><g class="nc-icon-wrapper" fill="currentColor"><path fill="currentColor" d="M10.392 0l10.393 6v12l-10.393 6L0 18V6z" class="nc-icon-wrapper"/></g></g></symbol><symbol id="nc-handout-token" viewBox="0 0 64 64"><title>handout token</title><g><g class="nc-icon-wrapper" fill="currentColor"><g class="nc-icon-wrapper" fill="currentColor"><path fill="currentColor" d="M11 31h1c4.7 0 9.9 2.5 12.5 6H32c4.5 0 9 4.5 9 9 0 .6-.4 1-1 1H22c-.6 0-1-.4-1-1s.4-1 1-1h16.9c-.6-3.1-3.8-6-6.9-6h-8c-.3 0-.6-.2-.8-.4C21 35.4 16.2 33 12 33h-1m29.4 10H52c4.4 0 6.1 1.5 6.7 2.5L31 56.7c-2 .8-4.3.7-6.2-.3l-14.3-7.3c-.5-.2-1.1-.1-1.3.4s-.1 1.1.4 1.3l14.3 7.3c1.3.7 2.8 1 4.3 1 1.2 0 2.4-.2 3.6-.7l28.6-11.6c.4-.2.7-.6.6-1.1 0-.2-1-4.8-9-4.8H39.2C40 42 40.4 43 40.4 43zM11 54V28c0-.6-.4-1-1-1H2c-.6 0-1 .4-1 1v26c0 .6.4 1 1 1h8c.6 0 1-.4 1-1zM3 29h6v24H3V29z"/><path fill="currentColor" d="M37 34.6c-8.1 0-14.6-6.6-14.6-14.6S28.9 5.4 37 5.4 51.6 11.9 51.6 20 45.1 34.6 37 34.6zm0-27.2C30 7.4 24.4 13 24.4 20S30 32.6 37 32.6 49.6 26.9 49.6 20 44 7.4 37 7.4z"/><path data-color="color-2" d="M36.9 20l3.7 2.2v-4.3m3.6-2.1l-1.9 1.1V23l1.9 1.1v-8.3zM36.9 20l3.7-2.1-3.7-2.1m-7.1 0l1.9 1.1v-2.2l-1.9 1.1zm7.3-4.1l-3.7 2.1v4.1l1.9 1.1v-4.1l1.8-1 5.2 3 1.9-1.1-7.1-4.1zM35.3 21v-2l-1.9-1.1v4.2l1.9-1.1zm-5.5-5.2v8.3l1.9-1.1v-6.1l-1.9-1.1zM42.3 23v2.3l1.9-1.2-1.9-1.1zm-7-2l-1.9 1.1 3.7 2.1 1.6 1-1.7.9-5.3-3.1-1.9 1.1v.1l7.2 4.2 3.6-2.1v-2.1L37 22l-1.7-1z"/></g></g></g></symbol><symbol id="nc-exchange-token" viewBox="0 0 64 64"><title>exchange token</title><g><g class="nc-icon-wrapper" fill="currentColor"><g class="nc-icon-wrapper" fill="currentColor"><path data-color="color-2" fill="none" stroke-width="2" stroke-linecap="round" stroke-linejoin="round" stroke-miterlimit="10" d="M36 16h12c4.4 0 8 3.6 8 8v6"/><path data-color="color-2" fill="none" stroke-width="2" stroke-linecap="round" stroke-linejoin="round" stroke-miterlimit="10" d="M28 48H16c-4.4 0-8-3.6-8-8v-6"/><path data-color="color-2" fill="none" stroke-width="2" stroke-linecap="round" stroke-linejoin="round" stroke-miterlimit="10" d="M44 8l-8 8 8 8"/><path data-color="color-2" fill="none" stroke-width="2" stroke-linecap="round" stroke-linejoin="round" stroke-miterlimit="10" d="M20 40l8 8-8 8"/><g><path data-color="color-2" fill="none" stroke-width="2" stroke-linecap="round" stroke-linejoin="round" stroke-miterlimit="10" d="M43.7 61.5h-4v-9h4"/><path data-color="color-2" fill="none" stroke-width="2" stroke-linecap="round" stroke-linejoin="round" stroke-miterlimit="10" d="M57.7 61.5h4v-9h-4"/><path fill="none" stroke="currentColor" stroke-width="2" stroke-linecap="round" stroke-linejoin="round" stroke-miterlimit="10" d="M43.7 39.5h14v22h-14z"/><path fill="none" stroke="currentColor" stroke-width="2" stroke-linecap="round" stroke-linejoin="round" stroke-miterlimit="10" d="M47.7 43.5h1"/><path fill="none" stroke="currentColor" stroke-width="2" stroke-linecap="round" stroke-linejoin="round" stroke-miterlimit="10" d="M52.7 43.5h1"/><path fill="none" stroke="currentColor" stroke-width="2" stroke-linecap="round" stroke-linejoin="round" stroke-miterlimit="10" d="M47.7 47.5h1"/><path fill="none" stroke="currentColor" stroke-width="2" stroke-linecap="round" stroke-linejoin="round" stroke-miterlimit="10" d="M52.7 47.5h1"/><path fill="none" stroke="currentColor" stroke-width="2" stroke-linecap="round" stroke-linejoin="round" stroke-miterlimit="10" d="M47.7 51.5h1"/><path fill="none" stroke="currentColor" stroke-width="2" stroke-linecap="round" stroke-linejoin="round" stroke-miterlimit="10" d="M52.7 51.5h1"/><path fill="none" stroke="currentColor" stroke-width="2" stroke-linecap="round" stroke-linejoin="round" stroke-miterlimit="10" d="M47.7 55.5h1"/><path fill="none" stroke="currentColor" stroke-width="2" stroke-linecap="round" stroke-linejoin="round" stroke-miterlimit="10" d="M52.7 55.5h1"/><path fill="none" stroke="currentColor" stroke-width="2" stroke-linecap="round" stroke-linejoin="round" stroke-miterlimit="10" d="M50.7 61.5v-2"/></g><path fill="currentColor" d="M13.4 25.8C6.4 25.8.8 20.1.8 13.2S6.4.6 13.4.6 26 6.2 26 13.2s-5.6 12.6-12.6 12.6zm0-23.5C7.3 2.3 2.5 7.1 2.5 13.2s4.8 10.9 10.9 10.9 10.9-4.9 10.9-10.9S19.4 2.3 13.4 2.3z"/><path data-color="color-2" d="M13.3 13.2l3.2 1.9v-3.7m3.1 5.4V9.5l-1.6 1v5.3m-4.7-2.6l3.2-1.8-3.2-1.8m-6.2 0l1.6 1v-2l-1.6 1zM13.5 6l-3.2 1.8v3.5l1.6 1V8.8l1.6-.9 4.5 2.6 1.6-1L13.5 6zm-1.6 8.1v-1.8l-1.6-1v3.8l1.6-1zM7.1 9.6v7.2l1.6-1v-5.3l-1.6-.9zM18 15.8v2l1.6-1-1.6-1zm-4.6 4.8l3.1-1.8V17l-3.1-1.9-1.5-1-1.6 1 3.2 1.8 1.4.9-1.5.8-4.7-2.8-1.6 1"/></g></g></g></symbol><symbol id="nc-pin-2" viewBox="0 0 64 64"><title>pin 2</title><g><g class="nc-icon-wrapper"><line data-cap="butt" data-color="color-2" fill="none" stroke-width="2" stroke-miterlimit="10" x1="38" y1="54" x2="48" y2="54" stroke-linejoin="miter" stroke-linecap="butt"/> <line data-cap="butt" data-color="color-2" fill="none" stroke-width="2" stroke-miterlimit="10" x1="16" y1="32" x2="26" y2="32" stroke-linejoin="miter" stroke-linecap="butt"/> <line data-cap="butt" data-color="color-2" fill="none" stroke-width="2" stroke-miterlimit="10" x1="32" y1="38" x2="32" y2="48" stroke-linejoin="miter" stroke-linecap="butt"/> <circle data-color="color-2" fill="none" stroke-width="2" stroke-linecap="square" stroke-miterlimit="10" cx="10" cy="10" r="6" stroke-linejoin="miter"/> <circle data-color="color-2" fill="none" stroke-width="2" stroke-linecap="square" stroke-miterlimit="10" cx="10" cy="32" r="6" stroke-linejoin="miter"/> <circle data-color="color-2" fill="none" stroke-width="2" stroke-linecap="square" stroke-miterlimit="10" cx="32" cy="32" r="6" stroke-linejoin="miter"/> <circle data-color="color-2" fill="none" stroke-width="2" stroke-linecap="square" stroke-miterlimit="10" cx="32" cy="54" r="6" stroke-linejoin="miter"/> <circle data-color="color-2" fill="none" stroke-width="2" stroke-linecap="square" stroke-miterlimit="10" cx="54" cy="54" r="6" stroke-linejoin="miter"/> <line data-cap="butt" data-color="color-2" fill="none" stroke-width="2" stroke-miterlimit="10" x1="10" y1="16" x2="10" y2="26" stroke-linejoin="miter" stroke-linecap="butt"/> <circle fill="none" stroke="currentColor" stroke-width="2" stroke-linecap="square" stroke-miterlimit="10" cx="32" cy="10" r="6" stroke-linejoin="miter"/> <circle fill="none" stroke="currentColor" stroke-width="2" stroke-linecap="square" stroke-miterlimit="10" cx="54" cy="10" r="6" stroke-linejoin="miter"/> <circle fill="none" stroke="currentColor" stroke-width="2" stroke-linecap="square" stroke-miterlimit="10" cx="54" cy="32" r="6" stroke-linejoin="miter"/> <circle fill="none" stroke="currentColor" stroke-width="2" stroke-linecap="square" stroke-miterlimit="10" cx="10" cy="54" r="6" stroke-linejoin="miter"/></g></g></symbol><symbol id="nc-round-dollar" viewBox="0 0 48 48"><title>round dollar</title><g><g class="nc-icon-wrapper"><path fill="currentColor" d="M19.822,17.983c0,1.884,1.389,2.273,3.178,3.017v-5.545C21.339,15.705,19.822,16.3,19.822,17.983z"/> <path fill="currentColor" d="M25,26v5.72c2.104-0.323,3.304-1.225,3.304-2.708C28.304,27.242,26.778,26.655,25,26z"/> <path fill="currentColor" d="M24,1C11.317,1,1,11.318,1,24s10.317,23,23,23s23-10.318,23-23S36.683,1,24,1z M30.635,33.029 C29.367,34.153,27.391,34.737,25,35v4h-2v-3.784c-2.965-0.048-5.635-0.502-7.536-1.363V30.07c2.115,1.033,5.103,1.767,7.536,1.793 v-6.706L21.256,24.6c-1.961-0.753-3.393-1.652-4.295-2.699c-0.903-1.046-1.354-2.34-1.354-3.882c0-1.65,0.643-3.006,1.928-4.071 C18.82,12.885,20.801,12.228,23,12V9h2v3c2.427,0.083,4.875,0.532,7.051,1.429l-1.309,3.281c-1.877-0.741-3.889-1.183-5.742-1.327 v6.527l1.51,0.52c2.271,0.873,3.843,1.793,4.716,2.761c0.872,0.968,1.309,2.152,1.309,3.55 C32.536,30.476,31.902,31.905,30.635,33.029z"/></g></g></symbol><symbol id="nc-round-euro" viewBox="0 0 48 48"><title>round euro</title><g><g class="nc-icon-wrapper"><path fill="currentColor" d="M24,1C11.317,1,1,11.318,1,24s10.317,23,23,23s23-10.318,23-23S36.683,1,24,1z M28.561,20.339v2.746h-8.687 c-0.057,0.75-0.039,1.375,0,2.311h7.407v2.62h-7.099c0.775,3.561,2.977,5.342,6.609,5.342c1.731,0,3.504-0.354,5.319-1.062v3.476 c-1.586,0.697-3.431,1.044-5.537,1.044c-2.917,0-5.286-0.753-7.107-2.26c-1.822-1.507-3.012-3.686-3.568-6.54H13v-2.62h2.607 c-0.057-0.764-0.075-1.28,0-2.311H13v-2.746l2.862,0.04c0.46-2.865,1.616-5.113,3.467-6.746c1.852-1.632,4.242-2.448,7.172-2.448 c2.42,0,4.587,0.502,6.499,1.507l-1.525,3.202c-1.864-0.867-3.522-1.301-4.974-1.301c-1.707,0-3.102,0.479-4.185,1.438 c-1.084,0.959-1.807,2.409-2.17,4.349L28.561,20.339z"/></g></g></symbol><symbol id="nc-ethereum-logo" viewBox="0 0 48 48"><title>ethereum logo</title><g><g class="nc-icon-wrapper" fill="currentColor"><path fill="currentColor" d="M24 0C10.7 0 0 10.7 0 24s10.7 24 24 24 24-10.7 24-24S37.3 0 24 0zm-.3 39.9l-9.5-13.4 9.5 5.6v7.8zm0-9.8l-9.5-5.6 9.5-4.2v9.8zm0-10.5l-9.2 4 9.2-15.5v11.5zm.6-11.5l9.4 15.6-9.4-4.1V8.1zm0 31.8V32l9.5-5.6-9.5 13.5zm0-9.8v-9.8l9.6 4.2-9.6 5.6z" class="nc-icon-wrapper"/></g></g></symbol><symbol id="nc-uk" viewBox="0 0 48 48"><title>uk</title><g><g class="nc-icon-wrapper"><g class="nc-icon-wrapper"><path fill="#002781" d="M46 6H2a2 2 0 0 0-2 2v32a2 2 0 0 0 2 2h44a2 2 0 0 0 2-2V8a2 2 0 0 0-2-2z"/><path fill="#fff" d="M48 8a2 2 0 0 0-2-2h-5.161L28 15.876V6h-8v9.876L7.161 6H2a2 2 0 0 0-2 2v2.586L12.239 20H0v8h12.239L0 37.415V40a2 2 0 0 0 2 2h5.161L20 32.124V42h8v-9.876L40.839 42H46a2 2 0 0 0 2-2v-2.585L35.761 28H48v-8H35.761L48 10.586V8z"/><path fill="#D10D24" d="M48 22H26V6h-4v16H0v4h22v16h4V26h22z"/><path fill="#D10D24" d="M47.001 6.307L29.2 20h3.28L48 8.062V8c0-.732-.413-1.344-.999-1.693z"/><path fill="#D10D24" d="M32.48 28H29.2l17.801 13.693c.586-.349.999-.961.999-1.693v-.062L32.48 28z"/><path fill="#D10D24" d="M15.52 28L0 39.938V40c0 .732.413 1.344.999 1.693L18.8 28h-3.28z"/><path fill="#D10D24" d="M15.52 20h3.28L.999 6.307C.413 6.656 0 7.268 0 8v.062L15.52 20z"/></g></g></g></symbol><symbol id="nc-shape-rectangle" viewBox="0 0 16 16"><title>shape rectangle</title><g><g class="nc-icon-wrapper"><rect width="16" height="16" rx="1" ry="1" fill="currentColor"/></g></g></symbol><symbol id="nc-token-icon" viewBox="0 0 48 48"><title>token icon</title><g><g class="nc-icon-wrapper" fill="currentColor"><path fill="currentColor" d="M20.7 24.1l10.6 6.2V17.9M41.6 12L36 15.2v17.7l5.6 3.2V12zm-10.3 5.9l-10.5-6.1-.3-.1.1 12.4M0 12l5.6 3.2V8.8L0 12zM20.8 0L10.2 6.1V18l5.6 3.2v-12l5.1-2.8L36 15.2l5.6-3.2L20.8 0zm-5 26.9v-5.8l-5.6-3.2V30l5.6-3.1zM0 12v24l5.6-3.2V15.2L0 12zm36 20.8v6.3l5.6-3.2-5.6-3.1zm-20.2-5.9l-5.6 3.2 10.6 6.1 4.7 2.8-4.7 2.7-15.2-8.9L0 36l20.8 12 10.5-6.1v-6.2l-10.5-6.1-5-2.7z" class="nc-icon-wrapper"/><path fill="currentColor" d="M20.7 24.1l10.6 6.2V17.9M41.6 12L36 15.2v17.7l5.6 3.2V12zm-10.3 5.9l-10.5-6.1-.3-.1.1 12.4M0 12l5.6 3.2V8.8L0 12zM20.8 0L10.2 6.1V18l5.6 3.2v-12l5.1-2.8L36 15.2l5.6-3.2L20.8 0zm-5 26.9v-5.8l-5.6-3.2V30l5.6-3.1zM0 12v24l5.6-3.2V15.2L0 12zm36 20.8v6.3l5.6-3.2-5.6-3.1zm-20.2-5.9l-5.6 3.2 10.6 6.1 4.7 2.8-4.7 2.7-15.2-8.9L0 36l20.8 12 10.5-6.1v-6.2l-10.5-6.1-5-2.7z"/></g></g></symbol><symbol id="nc-leaseum-logo" viewBox="0 0 320 111.9"><title>leaseum logo</title><g><g class="nc-icon-wrapper"><path class="st0" d="M217.7 35.5c-1-1.7-3.8-3.3-7-3.3-4.1 0-6.1 1.7-6.1 3.9 0 2.6 3 3.3 6.6 3.7 6.2.8 11.9 2.4 11.9 9.4 0 6.6-5.8 9.4-12.4 9.4-6.1 0-10.7-1.9-12.9-7.3l4.7-2.4c1.3 3.3 4.7 4.7 8.3 4.7 3.5 0 6.8-1.2 6.8-4.4 0-2.8-2.9-3.9-6.9-4.4-6.1-.7-11.6-2.3-11.6-9 0-6.1 6-8.6 11.5-8.6 4.6 0 9.4 1.3 11.6 5.9l-4.5 2.4zm32.6 17h-16.6v-6.7h16v-5.2h-16v-6.8h16.6v-5.4h-22.2V58h22.2v-5.5zm-136-24.2V58h20.8v-5.2h-15.2V28.3h-5.6zm47.3 24.2H145v-6.7h16v-5.2h-16v-6.8h16.6v-5.4h-22.2V58h22.2v-5.5zm29.2 5.5h6.1l-13.3-29.6h-6.1L164.2 58h6.1l2.5-5.6h15.5l2.5 5.6zM186 47.2h-11l5.5-12.6 5.5 12.6zm90.4-18.8v17c0 5.1-2.6 8.2-7.2 8.2s-7.7-2.8-7.7-8.2v-17H256v17c0 8.9 6.1 13.3 13.2 13.3 7.5 0 12.8-4.5 12.8-13.3v-17h-5.6zm38 29.6h5.6V28.4h-6.4l-9.3 12.7-9.3-12.7h-6.4V58h5.6V36.5l9.4 12.9h1.1l9.7-12.9V58z" fill="#181F4A"/><path class="st1" d="M117.1 79.8v4.4h-2.8V69.3h7c7.3 0 7.3 10.5 0 10.5h-4.2zm0-2.5h4.2c3.6 0 3.6-5.3 0-5.3h-4.2v5.3zm34.1 4.1h-7.8l-1.3 2.8h-3l6.7-14.9h3.1l6.7 14.9h-3.1l-1.3-2.8zm-3.9-9l-2.8 6.3h5.5l-2.7-6.3zm36 11.8h-3.2l-4.3-5h-2.9v5h-2.8V69.3h7.1c3.5 0 5.4 2.4 5.4 4.9 0 2-.9 4.1-3.8 4.7l4.5 5.1v.2zm-10.4-12.3v4.8h4.3c1.8 0 2.6-1.2 2.6-2.4s-.8-2.4-2.6-2.4h-4.3zm28.5 12.3h2.8V71.9h4.7v-2.6h-12.3v2.6h4.7v12.3zm24.8-14.9h-2.3v14.9h2.8v-9.9l7.9 9.9h2.3V69.3h-2.8v10l-7.9-10zm38.2 12.1H256V78h8.1v-2.6H256V72h8.4v-2.7h-11.2v14.9h11.2v-2.8zm28.9 2.8h-3.2l-4.3-5H283v5h-2.8V69.3h7.1c3.5 0 5.4 2.4 5.4 4.9 0 2-.9 4.1-3.8 4.7l4.5 5.1v.2zM283 71.9v4.8h4.3c1.8 0 2.6-1.2 2.6-2.4s-.8-2.4-2.6-2.4H283zm36.5-.1c-1.1-2.3-3.5-3-5.9-3-2.7 0-5.8 1.3-5.8 4.3 0 3.3 2.8 4.2 5.9 4.5 2 .2 3.5.8 3.5 2.2 0 1.6-1.7 2.2-3.4 2.2-1.8 0-3.5-.7-4.2-2.4l-2.3 1.2c1.1 2.7 3.5 3.7 6.5 3.7 3.3 0 6.3-1.4 6.3-4.7 0-3.6-2.9-4.4-6-4.7-1.8-.2-3.3-.6-3.3-1.9 0-1.1 1-2 3.1-2 1.6 0 3 .8 3.5 1.7l2.1-1.1z" fill="#21337F"/><path class="st2" d="M48 56.2V27.4l.5.3L73 41.8 48 56.2zM0 28l13 7.5v-15L0 28zM48.5 0L24 14.1v27.7l13 7.5V21.6L48.5 15 84 35.5 97 28 48.5 0z" fill="#344CD1"/><path class="st3" d="M48 56.2l25-14.4V70.7L48 56.2M96.9 28l-13 7.5v41l13 7.5V28zM37 62.6V49.3l-13-7.5v28.3l13-7.5zM0 28v56l13-7.5v-41L0 28z" fill="#1A31AF"/><path class="st4" d="M96.9 83.9l-13 7.5v-15l13 7.5zM37 62.6l-13 7.5 24.5 14.1 11 6.4-11 6.4L13 76.5 0 83.9l48.5 28L73 97.8V83.4L48.5 69.2 37 62.6z" fill="#162994"/></g></g></symbol><symbol id="nc-leaseum-logo-2" viewBox="0 0 320 111.9"><title>leaseum logo 2</title><g><g class="nc-icon-wrapper" fill="currentColor"><path class="st0" d="M217.7 35.5c-1-1.7-3.8-3.3-7-3.3-4.1 0-6.1 1.7-6.1 3.9 0 2.6 3 3.3 6.6 3.7 6.2.8 11.9 2.4 11.9 9.4 0 6.6-5.8 9.4-12.4 9.4-6.1 0-10.7-1.9-12.9-7.3l4.7-2.4c1.3 3.3 4.7 4.7 8.3 4.7 3.5 0 6.8-1.2 6.8-4.4 0-2.8-2.9-3.9-6.9-4.4-6.1-.7-11.6-2.3-11.6-9 0-6.1 6-8.6 11.5-8.6 4.6 0 9.4 1.3 11.6 5.9l-4.5 2.4zm32.6 17h-16.6v-6.7h16v-5.2h-16v-6.8h16.6v-5.4h-22.2V58h22.2v-5.5zm-136-24.2V58h20.8v-5.2h-15.2V28.3h-5.6zm47.3 24.2H145v-6.7h16v-5.2h-16v-6.8h16.6v-5.4h-22.2V58h22.2v-5.5zm29.2 5.5h6.1l-13.3-29.6h-6.1L164.2 58h6.1l2.5-5.6h15.5l2.5 5.6zM186 47.2h-11l5.5-12.6 5.5 12.6zm90.4-18.8v17c0 5.1-2.6 8.2-7.2 8.2s-7.7-2.8-7.7-8.2v-17H256v17c0 8.9 6.1 13.3 13.2 13.3 7.5 0 12.8-4.5 12.8-13.3v-17h-5.6zm38 29.6h5.6V28.4h-6.4l-9.3 12.7-9.3-12.7h-6.4V58h5.6V36.5l9.4 12.9h1.1l9.7-12.9V58z" fill="currentColor"/><path class="st1" d="M117.1 79.8v4.4h-2.8V69.3h7c7.3 0 7.3 10.5 0 10.5h-4.2zm0-2.5h4.2c3.6 0 3.6-5.3 0-5.3h-4.2v5.3zm34.1 4.1h-7.8l-1.3 2.8h-3l6.7-14.9h3.1l6.7 14.9h-3.1l-1.3-2.8zm-3.9-9l-2.8 6.3h5.5l-2.7-6.3zm36 11.8h-3.2l-4.3-5h-2.9v5h-2.8V69.3h7.1c3.5 0 5.4 2.4 5.4 4.9 0 2-.9 4.1-3.8 4.7l4.5 5.1v.2zm-10.4-12.3v4.8h4.3c1.8 0 2.6-1.2 2.6-2.4s-.8-2.4-2.6-2.4h-4.3zm28.5 12.3h2.8V71.9h4.7v-2.6h-12.3v2.6h4.7v12.3zm24.8-14.9h-2.3v14.9h2.8v-9.9l7.9 9.9h2.3V69.3h-2.8v10l-7.9-10zm38.2 12.1H256V78h8.1v-2.6H256V72h8.4v-2.7h-11.2v14.9h11.2v-2.8zm28.9 2.8h-3.2l-4.3-5H283v5h-2.8V69.3h7.1c3.5 0 5.4 2.4 5.4 4.9 0 2-.9 4.1-3.8 4.7l4.5 5.1v.2zM283 71.9v4.8h4.3c1.8 0 2.6-1.2 2.6-2.4s-.8-2.4-2.6-2.4H283zm36.5-.1c-1.1-2.3-3.5-3-5.9-3-2.7 0-5.8 1.3-5.8 4.3 0 3.3 2.8 4.2 5.9 4.5 2 .2 3.5.8 3.5 2.2 0 1.6-1.7 2.2-3.4 2.2-1.8 0-3.5-.7-4.2-2.4l-2.3 1.2c1.1 2.7 3.5 3.7 6.5 3.7 3.3 0 6.3-1.4 6.3-4.7 0-3.6-2.9-4.4-6-4.7-1.8-.2-3.3-.6-3.3-1.9 0-1.1 1-2 3.1-2 1.6 0 3 .8 3.5 1.7l2.1-1.1z" fill="currentColor"/><path class="st2" d="M48 56.2V27.4l.5.3L73 41.8 48 56.2zM0 28l13 7.5v-15L0 28zM48.5 0L24 14.1v27.7l13 7.5V21.6L48.5 15 84 35.5 97 28 48.5 0z" fill="currentColor"/><path class="st3" d="M48 56.2l25-14.4V70.7L48 56.2M96.9 28l-13 7.5v41l13 7.5V28zM37 62.6V49.3l-13-7.5v28.3l13-7.5zM0 28v56l13-7.5v-41L0 28z" fill="currentColor"/><path class="st4" d="M96.9 83.9l-13 7.5v-15l13 7.5zM37 62.6l-13 7.5 24.5 14.1 11 6.4-11 6.4L13 76.5 0 83.9l48.5 28L73 97.8V83.4L48.5 69.2 37 62.6z" fill="currentColor"/></g></g></symbol><symbol id="nc-timeline-hexagon" viewBox="0 0 36 36"><title>timeline hexagon</title><g><g class="nc-icon-wrapper"><g class="nc-icon-wrapper" fill="#1b32b3"><g class="nc-icon-wrapper" fill="#1b32b3"><path fill="#cbd0ed" d="M18 0l15.588 9v18L18 36 2.412 27V9L18 0z"/><path fill="#1b32b3" d="M18 6l10.392 6v12L18 30 7.608 24V12L18 6z"/></g></g></g></g></symbol><symbol id="nc-small-hexagon-2" viewBox="0 0 24 24"><title>small hexagon 2</title><g><g class="nc-icon-wrapper"><g class="nc-icon-wrapper" fill="#cbd0ed"><path fill="#cbd0ed" d="M10.392 0l10.393 6v12l-10.393 6L0 18V6z" class="nc-icon-wrapper"/></g></g></g></symbol></svg>